<svg xmlns="http://www.w3.org/2000/svg" width="1239.749" height="825.127" viewBox="0 0 619.874 412.563"><path fill="#fff" d="M0 0h619.874v412.563H0z"/><path fill="none" stroke="#1e1e1e" stroke-linecap="round" stroke-width="2" d="M334.526 13.43c7.36 2.43 15.1 9.62 20.01 16.07 4.91 6.46 8.51 14.71 9.47 22.65.95 7.94-.62 17.75-3.76 25.01-3.13 7.27-8.49 13.94-15.06 18.57-6.57 4.62-16.32 8.33-24.34 9.16-8.02.83-16.57-.97-23.79-4.19-7.21-3.23-14.82-8.99-19.48-15.18-4.65-6.2-7.48-14.12-8.45-21.98-.97-7.86-.35-17.76 2.63-25.16 2.99-7.4 8.9-14.41 15.27-19.24 6.38-4.84 14-9.32 22.98-9.76 8.99-.45 25.13 5.18 30.96 7.08 5.83 1.89 4.6 3.43 4.03 4.29m-47.11-7.18c6.93-3.26 18.65-4.67 26.46-3.41 7.8 1.25 14.4 5.77 20.38 10.94 5.98 5.16 12.27 12.79 15.51 20.05 3.23 7.26 5.13 15.67 3.92 23.49-1.21 7.81-5.84 17.1-11.17 23.4-5.33 6.3-13.23 11.52-20.79 14.38-7.57 2.87-16.99 4.04-24.62 2.81-7.62-1.24-15.02-5.31-21.15-10.22-6.13-4.91-12.48-11.73-15.63-19.25-3.16-7.52-4.69-17.74-3.29-25.87 1.4-8.14 6.66-16.72 11.67-22.95 5.01-6.22 15.06-12.31 18.41-14.4 3.35-2.1 1.09 1.01 1.71 1.84"/><text x="7.686" y="31.716" fill="#1e1e1e" dominant-baseline="alphabetic" font-family="Excalifont, Xiaolai, Segoe UI Emoji" font-size="36" style="white-space:pre" text-anchor="middle" transform="translate(307.868 34.968)">1</text><path fill="none" stroke="#1e1e1e" stroke-linecap="round" stroke-width="2" d="M199.026 138.744c7.17-1.87 18.15.66 25.75 3.34 7.61 2.68 14.84 6.82 19.88 12.74 5.05 5.92 8.65 15.02 10.37 22.8 1.72 7.77 2.48 16.44-.05 23.85-2.53 7.42-9.1 15.3-15.12 20.63-6.03 5.34-13.49 9.72-21.01 11.38-7.53 1.67-16.65 1.28-24.13-1.38-7.49-2.66-15.27-8.41-20.78-14.57-5.51-6.17-10.61-14.63-12.27-22.44-1.67-7.81-.4-16.88 2.25-24.42 2.66-7.54 7.2-15.63 13.68-20.81 6.49-5.17 20.76-8.65 25.24-10.26 4.47-1.6 1.41-.11 1.6.64m10.73-.27c7.33.43 16.81 3.78 23.3 8.6 6.49 4.82 12.44 12.87 15.64 20.32 3.2 7.45 4.82 16.46 3.56 24.36-1.26 7.9-6.07 16.87-11.12 23.05-5.06 6.17-11.92 11.07-19.2 14.01-7.29 2.93-16.74 4.69-24.49 3.59-7.75-1.1-15.86-5.32-22.03-10.21-6.17-4.89-11.83-11.78-14.99-19.13s-4.81-16.83-3.95-25c.85-8.16 4.21-17.58 9.07-24 4.85-6.41 12.48-11.84 20.04-14.49 7.56-2.65 21.44-1.19 25.32-1.4 3.88-.21-1.78-.54-2.04.13"/><text x="12.6" y="31.716" fill="#1e1e1e" dominant-baseline="alphabetic" font-family="Excalifont, Xiaolai, Segoe UI Emoji" font-size="36" style="white-space:pre" text-anchor="middle" transform="translate(196.324 163.592)">2</text><path fill="none" stroke="#1e1e1e" stroke-linecap="round" stroke-width="2" d="M450.597 146.21c7.37 1.64 15.27 6.88 20.73 12.68 5.46 5.79 10.2 14.33 12.04 22.09 1.85 7.76 1.56 16.96-.99 24.48s-8.22 15.38-14.29 20.64c-6.06 5.26-14.26 9.11-22.1 10.91-7.84 1.79-17.58 2.1-24.93-.12-7.35-2.23-13.93-7.28-19.16-13.24-5.22-5.97-10.28-14.57-12.18-22.55-1.89-7.99-1.75-17.85.8-25.36 2.56-7.52 8.52-14.49 14.52-19.73 6-5.25 13.27-10.34 21.5-11.77 8.22-1.42 22.55 2.31 27.85 3.23 5.31.92 4.08 1.76 3.97 2.31m-17.04-5.29c7.32.38 16.48 4.22 23.15 8.84 6.67 4.61 13.77 11.45 16.86 18.85 3.08 7.4 2.58 17.7 1.63 25.57-.95 7.87-2.45 15.61-7.35 21.65-4.89 6.04-14.37 11.48-22 14.6-7.63 3.13-16.01 4.76-23.78 4.14-7.77-.63-16.54-3.29-22.83-7.91-6.29-4.61-11.81-12.08-14.92-19.81-3.12-7.73-4.81-18.48-3.77-26.55 1.04-8.06 5.13-15.68 10-21.85 4.87-6.16 11.93-12.14 19.22-15.16 7.29-3.03 20.15-2.61 24.54-3 4.39-.4 2.02-.37 1.82.62"/><text x="10.944" y="31.716" fill="#1e1e1e" dominant-baseline="alphabetic" font-family="Excalifont, Xiaolai, Segoe UI Emoji" font-size="36" style="white-space:pre" text-anchor="middle" transform="translate(425.291 168.608)">3</text><path fill="none" stroke="#1e1e1e" stroke-linecap="round" stroke-width="2" d="M45.74 305.632c7.14-2.6 16.06-1.65 23.65.36 7.58 2.02 16.01 6.38 21.84 11.73 5.83 5.36 11.15 12.68 13.12 20.39 1.96 7.7.67 17.88-1.34 25.85-2.01 7.98-5.18 16.3-10.72 21.99-5.53 5.69-14.7 10.12-22.48 12.16-7.79 2.05-16.64 2.05-24.24.1-7.61-1.95-15.76-6.11-21.4-11.81-5.63-5.69-10.41-14.72-12.42-22.35-2.01-7.63-1.44-15.92.38-23.44 1.82-7.52 4.39-15.59 10.55-21.68 6.15-6.09 20.98-12.66 26.37-14.85 5.39-2.2 5.8.69 5.97 1.69m-11.25.21c7.42-2.76 18.6-3.75 26.41-1.8 7.82 1.94 15.13 7.46 20.49 13.46 5.35 6 9.2 14.7 11.64 22.53 2.44 7.83 4.54 17.14 2.99 24.45-1.56 7.3-6.36 13.93-12.3 19.39-5.94 5.47-15.3 10.9-23.35 13.4-8.05 2.49-17.5 3.47-24.97 1.58-7.47-1.9-14.16-7.21-19.84-12.94-5.69-5.72-12.16-13.85-14.26-21.41-2.1-7.55-.45-16.19 1.66-23.93 2.12-7.74 5.75-16.94 11.02-22.5 5.26-5.56 17.19-8.8 20.58-10.84 3.39-2.05-.59-1.89-.25-1.42"/><text x="10.53" y="31.716" fill="#1e1e1e" dominant-baseline="alphabetic" font-family="Excalifont, Xiaolai, Segoe UI Emoji" font-size="36" style="white-space:pre" text-anchor="middle" transform="translate(46.938 329.13)">4</text><path fill="none" stroke="#1e1e1e" stroke-linecap="round" stroke-width="2" d="M231.578 306.904c7.59-.1 17.07 4.4 23.66 8.71 6.59 4.3 12.16 10.05 15.88 17.11 3.71 7.06 6.86 17.33 6.41 25.23-.44 7.91-4.75 15.72-9.09 22.2-4.34 6.49-9.91 12.95-16.94 16.71-7.03 3.76-17.08 6.26-25.26 5.87-8.17-.39-17.26-3.79-23.76-8.2-6.5-4.41-11.63-11.25-15.23-18.27-3.6-7.03-6.58-16.06-6.36-23.89.23-7.84 3.23-16.6 7.69-23.12 4.46-6.52 11.51-12.46 19.07-15.99 7.56-3.53 21.22-4.63 26.29-5.19 5.07-.56 4 1.21 4.14 1.82m-2.38-3.19c7.21.55 16.29 6.59 22.7 11.6 6.41 5.02 12.94 11.04 15.77 18.5 2.84 7.47 2.69 18.34 1.26 26.3-1.44 7.97-5.1 15.51-9.88 21.49-4.77 5.97-11.27 11.73-18.75 14.37-7.48 2.65-18.03 2.84-26.12 1.49-8.1-1.34-16.41-4.56-22.46-9.54-6.05-4.98-11.15-13.09-13.85-20.36-2.69-7.26-3.63-15.8-2.3-23.22 1.33-7.42 4.98-15.18 10.28-21.29 5.3-6.11 14.27-12.43 21.51-15.39 7.25-2.95 18.03-1.91 21.94-2.36 3.91-.45 1.48-1.08 1.54-.33"/><text x="11.124" y="31.716" fill="#1e1e1e" dominant-baseline="alphabetic" font-family="Excalifont, Xiaolai, Segoe UI Emoji" font-size="36" style="white-space:pre" text-anchor="middle" transform="translate(217.832 332.152)">5</text><path fill="none" stroke="#1e1e1e" stroke-linecap="round" stroke-width="2" d="M419.455 310.092c7.1 2.63 13.29 9.76 17.64 16.19 4.34 6.43 7.94 14.6 8.44 22.38.49 7.78-2.06 17.12-5.47 24.32-3.42 7.19-8.4 14.15-15.02 18.86-6.63 4.7-16.85 8.75-24.75 9.39-7.89.63-15.59-1.96-22.63-5.59-7.03-3.64-14.89-9.65-19.59-16.23-4.7-6.57-7.97-15.4-8.62-23.2-.64-7.8 1.28-16.61 4.74-23.61 3.46-7.01 9.38-13.76 16.03-18.41 6.65-4.66 14.93-9.45 23.88-9.53 8.96-.07 23.91 6.83 29.85 9.08 5.94 2.25 5.98 3.9 5.8 4.44m-25.14-12.44c7.29.4 15.33 3.89 21.31 8.79 5.97 4.9 11.15 13.27 14.54 20.62 3.38 7.35 6.71 15.92 5.76 23.47-.95 7.55-6.53 15.61-11.47 21.84-4.95 6.24-11.25 12.27-18.19 15.57-6.93 3.29-15.44 5-23.4 4.19-7.97-.81-17.92-4.27-24.4-9.06-6.49-4.79-11.67-12.35-14.5-19.65-2.84-7.3-3.33-16.39-2.53-24.15.8-7.76 2.64-15.92 7.31-22.41s13.46-13.26 20.7-16.53c7.23-3.27 18.59-2.97 22.7-3.09 4.12-.12 2 1.47 1.97 2.37"/><text x="11.52" y="31.716" fill="#1e1e1e" dominant-baseline="alphabetic" font-family="Excalifont, Xiaolai, Segoe UI Emoji" font-size="36" style="white-space:pre" text-anchor="middle" transform="translate(385.933 330.19)">6</text><path fill="none" stroke="#1e1e1e" stroke-linecap="round" stroke-width="2" d="M564.195 301.917c7.73-.47 17.8 2.6 24.65 6.89 6.84 4.29 12.98 11.65 16.41 18.82 3.43 7.17 4.67 16.34 4.15 24.18-.51 7.84-2.9 16.34-7.25 22.87-4.34 6.53-11.78 12.53-18.83 16.32-7.06 3.79-15.63 6.68-23.5 6.41-7.86-.26-16.92-3.51-23.69-8-6.78-4.49-13.34-11.58-16.96-18.94-3.61-7.35-5.11-17.3-4.73-25.18.39-7.87 2.58-15.58 7.06-22.07 4.48-6.49 12.08-13.13 19.83-16.87 7.76-3.75 22.07-4.85 26.69-5.6 4.62-.75 1.07.05 1.02 1.1m7.38 1.02c7.36 1.54 15.27 8.28 20.5 14.4 5.23 6.12 9.05 14.77 10.89 22.32 1.84 7.54 2.53 15.27.14 22.96-2.39 7.69-8.55 17.88-14.49 23.2-5.94 5.31-13.33 7.38-21.16 8.71-7.83 1.34-17.96 1.66-25.82-.69-7.85-2.35-16.08-7.8-21.33-13.41-5.25-5.62-9.04-12.39-10.17-20.29-1.14-7.9.74-19.14 3.38-27.1 2.64-7.95 6.73-15.63 12.45-20.62 5.72-4.98 14.28-7.66 21.86-9.3 7.59-1.64 19.87-.6 23.67-.52 3.8.09-.9.14-.87 1.04"/><text x="10.044" y="31.716" fill="#1e1e1e" dominant-baseline="alphabetic" font-family="Excalifont, Xiaolai, Segoe UI Emoji" font-size="36" style="white-space:pre" text-anchor="middle" transform="translate(551.92 326.235)">7</text><g stroke-linecap="round"><path fill="none" stroke="#1e1e1e" stroke-width="2" d="M367.45 93.255c6.28 7.92 31.29 39.04 37.66 46.8m-38.2-47.07c6.42 8.02 32.76 39.81 39.18 47.66"/><path fill="none" stroke="#1e1e1e" stroke-width="2" d="M384.56 127.945c7.99 3.34 14.19 8.71 21.53 12.7m-21.53-12.7c5.03 2.8 9.58 5.9 21.53 12.7"/><path fill="none" stroke="#1e1e1e" stroke-width="2" d="M397.76 117.075c3.49 7.06 5.22 16.1 8.33 23.57m-8.33-23.57c2.2 5.12 3.91 10.55 8.33 23.57"/></g><g stroke-linecap="round"><path fill="none" stroke="#1e1e1e" stroke-width="2" d="M275.51 98.159c-5.37 7.21-26.98 35.96-32.54 43.18m31.87-43.49c-5.37 7.29-26.83 36.79-32.11 44.17"/><path fill="none" stroke="#1e1e1e" stroke-width="2" d="M249.56 117.969c-.98 6.41-3.28 10.59-6.83 24.05m6.83-24.05c-2.53 7.21-4.4 15.46-6.83 24.05M263.42 127.979c-4.28 4.04-9.88 5.84-20.69 14.04m20.69-14.04c-6.87 4.06-13.12 9.15-20.69 14.04"/></g><g stroke-linecap="round"><path fill="none" stroke="#1e1e1e" stroke-width="2" d="M171.583 219.326c-12.48 14.37-62.55 72.47-74.93 87.1m73.54-84.88c-12.61 14.49-62.15 71.5-74.35 85.98M104.653 284.126c-3.92 7.57-6.73 15.79-8.81 23.4m8.81-23.4c-3.54 7.55-5.96 12.58-8.81 23.4"/><path fill="none" stroke="#1e1e1e" stroke-width="2" d="M117.633 295.256c-7.88 4.21-14.64 9.04-21.79 12.27m21.79-12.27c-7.26 4.22-13.45 6.02-21.79 12.27"/></g><g stroke-linecap="round"><path fill="none" stroke="#1e1e1e" stroke-width="2" d="M225.759 238.515c-.42 9.36-1.16 45.67-1.16 54.75m3.22-55.32c-.16 9.59-.62 47.35-1.09 56.71"/><path fill="none" stroke="#1e1e1e" stroke-width="2" d="M218.849 270.925c4.5 7.45 5.56 18.65 7.88 23.73m-7.88-23.73c1.86 5.81 4.96 12.62 7.88 23.73M235.939 271.405c-2.17 7.22-7.79 18.24-9.21 23.25m9.21-23.25c-2.51 5.63-3.78 12.32-9.21 23.25"/></g><g stroke-linecap="round"><path fill="none" stroke="#1e1e1e" stroke-width="2" d="M413.701 242.628c-1.04 8.08-4.85 40.41-5.65 48.39m6.43-48.83c-.88 7.92-4.44 39.89-5.39 48.03"/><path fill="none" stroke="#1e1e1e" stroke-width="2" d="M403.421 266.658c2 7.24 4.37 16.67 5.67 23.56m-5.67-23.56c1.88 6.12 2.75 12.4 5.67 23.56M419.891 268.528c-3.5 6.54-6.64 15.35-10.8 21.69m10.8-21.69c-2.58 5.6-6.18 11.37-10.8 21.69"/></g><g stroke-linecap="round"><path fill="none" stroke="#1e1e1e" stroke-width="2" d="M480.502 230.672c8.29 10.97 41.94 56.03 50.3 67.31m-48.67-65.17c8.28 11.11 40.24 55.52 48.28 66.69M509.742 285.432c3.8 5.52 10.5 8.85 20.67 14.07m-20.67-14.07c7.16 4.13 12.91 8.69 20.67 14.07"/><path fill="none" stroke="#1e1e1e" stroke-width="2" d="M523.622 275.442c.33 7.93 3.51 13.78 6.79 24.06m-6.79-24.06c2.65 7.34 3.87 15.14 6.79 24.06"/></g></svg>
