<?xml version="1.0" standalone="no"?>
<!DOCTYPE svg PUBLIC "-//W3C//DTD SVG 20010904//EN"
 "http://www.w3.org/TR/2001/REC-SVG-20010904/DTD/svg10.dtd">
<svg version="1.0" xmlns="http://www.w3.org/2000/svg"
 width="1024.000000pt" height="1024.000000pt" viewBox="0 0 1024.000000 1024.000000"
 preserveAspectRatio="xMidYMid meet">
<metadata>
Created by potrace 1.14, written by Peter Selinger 2001-2017
</metadata>
<g transform="translate(0.000000,1024.000000) scale(0.100000,-0.100000)"
fill="#000000" stroke="none">
<path d="M1065 4918 l0 -2773 333 -3 332 -2 0 1175 c0 1112 1 1175 18 1176 9
0 355 2 767 3 656 3 810 6 900 21 360 58 614 175 821 380 142 141 233 279 308
470 39 100 80 251 91 335 4 30 8 57 10 60 8 13 18 199 19 325 0 123 -9 291
-18 335 -1 8 -6 38 -10 65 -11 72 -66 278 -78 292 -6 7 -8 13 -5 13 4 0 -3 21
-14 47 -111 259 -266 456 -466 591 -172 117 -421 211 -628 237 -27 4 -77 10
-110 15 -33 5 -557 9 -1165 9 l-1106 1 1 -2772z m2210 2177 c105 -18 114 -21
170 -40 179 -60 330 -181 417 -335 28 -50 72 -173 83 -235 14 -78 14 -684 0
-770 -56 -341 -272 -551 -640 -621 -80 -15 -176 -17 -830 -18 l-740 -1 -3
1018 -2 1017 732 -1 c570 -1 751 -4 813 -14z"/>
<path d="M5659 7673 c0 -10 -1 -1258 -1 -2773 l-1 -2755 306 -3 307 -2 0 2270
0 2270 33 0 c29 0 34 -5 51 -48 33 -81 115 -284 146 -357 16 -38 93 -225 170
-415 77 -190 144 -354 149 -365 4 -11 13 -31 18 -45 6 -14 16 -38 23 -55 7
-16 37 -91 67 -165 30 -74 61 -148 69 -165 7 -16 54 -129 103 -250 120 -296
280 -688 331 -810 23 -55 46 -113 52 -130 15 -43 25 -50 33 -24 4 13 13 38 20
54 14 31 503 1226 620 1515 37 91 73 176 80 190 7 14 14 28 15 32 0 4 7 23 15
42 8 20 15 38 15 41 0 3 9 25 19 48 14 30 289 700 368 895 3 6 19 12 37 12
l32 0 0 -2267 -1 -2268 307 -3 306 -2 0 2775 0 2775 -415 -2 -415 -3 -209
-525 c-115 -289 -213 -534 -218 -545 -5 -11 -21 -51 -36 -90 -15 -38 -34 -86
-42 -105 -22 -51 -26 -61 -88 -220 -31 -80 -63 -158 -70 -175 -7 -16 -29 -73
-50 -125 -20 -52 -43 -108 -50 -125 -7 -16 -58 -142 -112 -280 -92 -230 -102
-250 -124 -250 -22 0 -45 30 -53 69 -2 6 -8 22 -14 36 -5 14 -42 106 -82 205
-40 99 -125 313 -190 475 -65 162 -241 602 -390 978 l-273 682 -428 0 c-402 0
-429 -1 -430 -17z"/>
</g>
</svg>
