<svg viewBox="0 0 24 30" fill="none" xmlns="http://www.w3.org/2000/svg">
<path d="M24 8.9991C24.0009 8.86778 23.9754 8.73762 23.9251 8.61633C23.8748 8.49504 23.8006 8.38509 23.707 8.293L15.707 0.293C15.5195 0.105516 15.2652 0.000133458 15 0H5C3.6744 0.00156145 2.40353 0.528847 1.46619 1.46619C0.528847 2.40353 0.00156145 3.6744 0 5V25C0.00156145 26.3256 0.528847 27.5965 1.46619 28.5338C2.40353 29.4712 3.6744 29.9984 5 30H19C20.3256 29.9984 21.5965 29.4712 22.5338 28.5338C23.4712 27.5965 23.9984 26.3256 24 25V8.9991ZM16 3.4141L20.5859 8H19C18.2046 7.99913 17.4421 7.68278 16.8796 7.12036C16.3172 6.55794 16.0009 5.79538 16 5V3.4141ZM19 28H5C4.20462 27.9991 3.44206 27.6828 2.87964 27.1204C2.31722 26.5579 2.00087 25.7954 2 25V5C2.00087 4.20462 2.31722 3.44206 2.87964 2.87964C3.44206 2.31722 4.20462 2.00087 5 2H14V5C14.0016 6.3256 14.5288 7.59647 15.4662 8.53381C16.4035 9.47115 17.6744 9.99844 19 10H22V25C21.9991 25.7954 21.6828 26.5579 21.1204 27.1204C20.5579 27.6828 19.7954 27.9991 19 28V28ZM5 13C5 12.7348 5.10536 12.4804 5.29289 12.2929C5.48043 12.1054 5.73478 12 6 12H14C14.2652 12 14.5196 12.1054 14.7071 12.2929C14.8946 12.4804 15 12.7348 15 13C15 13.2652 14.8946 13.5196 14.7071 13.7071C14.5196 13.8946 14.2652 14 14 14H6C5.73478 14 5.48043 13.8946 5.29289 13.7071C5.10536 13.5196 5 13.2652 5 13ZM14 16H6C5.73478 16 5.48043 16.1054 5.29289 16.2929C5.10536 16.4804 5 16.7348 5 17C5 17.2652 5.10536 17.5196 5.29289 17.7071C5.48043 17.8946 5.73478 18 6 18H14C14.2652 18 14.5196 17.8946 14.7071 17.7071C14.8946 17.5196 15 17.2652 15 17C15 16.7348 14.8946 16.4804 14.7071 16.2929C14.5196 16.1054 14.2652 16 14 16ZM11 20H6C5.73478 20 5.48043 20.1054 5.29289 20.2929C5.10536 20.4804 5 20.7348 5 21C5 21.2652 5.10536 21.5196 5.29289 21.7071C5.48043 21.8946 5.73478 22 6 22H11C11.2652 22 11.5196 21.8946 11.7071 21.7071C11.8946 21.5196 12 21.2652 12 21C12 20.7348 11.8946 20.4804 11.7071 20.2929C11.5196 20.1054 11.2652 20 11 20Z" fill="black"/>
</svg>
