<svg viewBox="0 0 414 417" fill="none" xmlns="http://www.w3.org/2000/svg">
<rect width="414" height="417" />
<rect x="1" y="1" width="412" height="415" rx="9" stroke="black" stroke-width="2"/>
<circle cx="27" cy="71" r="16.575" fill="white" stroke="black" stroke-width="0.85"/>
<path d="M28.275 68.45L26.575 71.425L28.275 71L26.575 74.4" stroke="black" stroke-width="0.85"/>
<rect x="18.5" y="64.2" width="3.4" height="3.4" fill="black"/>
<rect x="32.95" y="64.2" width="3.4" height="3.4" fill="black"/>
<line x1="20.2" y1="78.225" x2="35.5" y2="78.225" stroke="black" stroke-width="0.85"/>
<path d="M59 77V88H50L59 77Z" fill="#2B0FDB"/>
<path d="M70.488 41.832H78.6V53H77.256V43.016H71.832V53H70.488V41.832ZM81.4538 44.744H82.7338V46.088H82.7978C83.0111 45.5653 83.3204 45.1813 83.7258 44.936C84.1418 44.68 84.6378 44.552 85.2138 44.552C85.7258 44.552 86.1898 44.6533 86.6058 44.856C87.0218 45.0587 87.3738 45.3467 87.6618 45.72C87.9604 46.0933 88.1844 46.5467 88.3338 47.08C88.4938 47.6133 88.5738 48.2107 88.5738 48.872C88.5738 49.5333 88.4938 50.1307 88.3338 50.664C88.1844 51.1973 87.9604 51.6507 87.6618 52.024C87.3738 52.3973 87.0218 52.6853 86.6058 52.888C86.1898 53.0907 85.7258 53.192 85.2138 53.192C84.0938 53.192 83.2884 52.68 82.7978 51.656H82.7338V56.2H81.4538V44.744ZM84.8618 52.04C85.5871 52.04 86.1578 51.816 86.5738 51.368C86.9898 50.9093 87.1978 50.312 87.1978 49.576V48.168C87.1978 47.432 86.9898 46.84 86.5738 46.392C86.1578 45.9333 85.5871 45.704 84.8618 45.704C84.5738 45.704 84.2964 45.7467 84.0298 45.832C83.7738 45.9067 83.5498 46.0133 83.3578 46.152C83.1658 46.2907 83.0111 46.4613 82.8938 46.664C82.7871 46.856 82.7338 47.064 82.7338 47.288V50.36C82.7338 50.6267 82.7871 50.8667 82.8938 51.08C83.0111 51.2827 83.1658 51.4587 83.3578 51.608C83.5498 51.7467 83.7738 51.8533 84.0298 51.928C84.2964 52.0027 84.5738 52.04 84.8618 52.04ZM90.735 44.744H91.983V49.32L91.855 51.304H91.919L92.943 49.544L96.239 44.744H97.423V53H96.175V48.424L96.303 46.44H96.239L95.215 48.2L91.919 53H90.735V44.744ZM100.141 44.744H104.301C104.973 44.744 105.501 44.936 105.885 45.32C106.269 45.6933 106.461 46.2 106.461 46.84C106.461 47.8747 105.923 48.456 104.845 48.584V48.648C105.485 48.7013 105.96 48.904 106.269 49.256C106.589 49.5973 106.749 50.024 106.749 50.536C106.749 50.8667 106.696 51.1813 106.589 51.48C106.493 51.7787 106.349 52.04 106.157 52.264C105.965 52.488 105.731 52.6693 105.453 52.808C105.176 52.936 104.861 53 104.509 53H100.141V44.744ZM104.125 51.944C104.509 51.944 104.813 51.8427 105.037 51.64C105.261 51.4373 105.373 51.1493 105.373 50.776V50.408C105.373 50.0347 105.261 49.7467 105.037 49.544C104.813 49.3413 104.509 49.24 104.125 49.24H101.421V51.944H104.125ZM103.965 48.2C104.317 48.2 104.589 48.1147 104.781 47.944C104.984 47.7627 105.085 47.5067 105.085 47.176V46.824C105.085 46.4933 104.984 46.2427 104.781 46.072C104.589 45.8907 104.317 45.8 103.965 45.8H101.421V48.2H103.965ZM112.167 53.192C111.602 53.192 111.09 53.0907 110.631 52.888C110.183 52.6853 109.794 52.3973 109.463 52.024C109.143 51.64 108.892 51.1867 108.711 50.664C108.54 50.1307 108.455 49.5333 108.455 48.872C108.455 48.2213 108.54 47.6293 108.711 47.096C108.892 46.5627 109.143 46.1093 109.463 45.736C109.794 45.352 110.183 45.0587 110.631 44.856C111.09 44.6533 111.602 44.552 112.167 44.552C112.722 44.552 113.218 44.6533 113.655 44.856C114.092 45.0587 114.466 45.3413 114.775 45.704C115.084 46.056 115.319 46.4773 115.479 46.968C115.65 47.4587 115.735 47.9973 115.735 48.584V49.192H109.799V49.576C109.799 49.928 109.852 50.2587 109.959 50.568C110.076 50.8667 110.236 51.128 110.439 51.352C110.652 51.576 110.908 51.752 111.207 51.88C111.516 52.008 111.863 52.072 112.247 52.072C112.77 52.072 113.223 51.9493 113.607 51.704C114.002 51.4587 114.306 51.1067 114.519 50.648L115.431 51.304C115.164 51.8693 114.748 52.328 114.183 52.68C113.618 53.0213 112.946 53.192 112.167 53.192ZM112.167 45.624C111.815 45.624 111.495 45.688 111.207 45.816C110.919 45.9333 110.668 46.104 110.455 46.328C110.252 46.552 110.092 46.8187 109.975 47.128C109.858 47.4267 109.799 47.7573 109.799 48.12V48.232H114.359V48.056C114.359 47.32 114.156 46.7333 113.751 46.296C113.356 45.848 112.828 45.624 112.167 45.624ZM119.417 45.864H116.601V44.744H123.513V45.864H120.697V53H119.417V45.864ZM124.723 53.192C124.382 53.192 124.131 53.1067 123.971 52.936C123.822 52.7653 123.747 52.5413 123.747 52.264V52.056C123.747 51.7787 123.822 51.5547 123.971 51.384C124.131 51.2133 124.382 51.128 124.723 51.128C125.064 51.128 125.31 51.2133 125.459 51.384C125.619 51.5547 125.699 51.7787 125.699 52.056V52.264C125.699 52.5413 125.619 52.7653 125.459 52.936C125.31 53.1067 125.064 53.192 124.723 53.192ZM132.176 41.832H140.288V53H138.944V43.016H133.52V53H132.176V41.832ZM143.141 44.744H144.421V46.088H144.485C144.699 45.5653 145.008 45.1813 145.413 44.936C145.829 44.68 146.325 44.552 146.901 44.552C147.413 44.552 147.877 44.6533 148.293 44.856C148.709 45.0587 149.061 45.3467 149.349 45.72C149.648 46.0933 149.872 46.5467 150.021 47.08C150.181 47.6133 150.261 48.2107 150.261 48.872C150.261 49.5333 150.181 50.1307 150.021 50.664C149.872 51.1973 149.648 51.6507 149.349 52.024C149.061 52.3973 148.709 52.6853 148.293 52.888C147.877 53.0907 147.413 53.192 146.901 53.192C145.781 53.192 144.976 52.68 144.485 51.656H144.421V56.2H143.141V44.744ZM146.549 52.04C147.275 52.04 147.845 51.816 148.261 51.368C148.677 50.9093 148.885 50.312 148.885 49.576V48.168C148.885 47.432 148.677 46.84 148.261 46.392C147.845 45.9333 147.275 45.704 146.549 45.704C146.261 45.704 145.984 45.7467 145.717 45.832C145.461 45.9067 145.237 46.0133 145.045 46.152C144.853 46.2907 144.699 46.4613 144.581 46.664C144.475 46.856 144.421 47.064 144.421 47.288V50.36C144.421 50.6267 144.475 50.8667 144.581 51.08C144.699 51.2827 144.853 51.4587 145.045 51.608C145.237 51.7467 145.461 51.8533 145.717 51.928C145.984 52.0027 146.261 52.04 146.549 52.04ZM155.543 53.192C154.988 53.192 154.481 53.0907 154.023 52.888C153.564 52.6853 153.169 52.3973 152.839 52.024C152.519 51.64 152.268 51.1867 152.087 50.664C151.905 50.1307 151.815 49.5333 151.815 48.872C151.815 48.2213 151.905 47.6293 152.087 47.096C152.268 46.5627 152.519 46.1093 152.839 45.736C153.169 45.352 153.564 45.0587 154.023 44.856C154.481 44.6533 154.988 44.552 155.543 44.552C156.097 44.552 156.599 44.6533 157.047 44.856C157.505 45.0587 157.9 45.352 158.231 45.736C158.561 46.1093 158.817 46.5627 158.999 47.096C159.18 47.6293 159.271 48.2213 159.271 48.872C159.271 49.5333 159.18 50.1307 158.999 50.664C158.817 51.1867 158.561 51.64 158.231 52.024C157.9 52.3973 157.505 52.6853 157.047 52.888C156.599 53.0907 156.097 53.192 155.543 53.192ZM155.543 52.056C156.236 52.056 156.801 51.8427 157.239 51.416C157.676 50.9893 157.895 50.3387 157.895 49.464V48.28C157.895 47.4053 157.676 46.7547 157.239 46.328C156.801 45.9013 156.236 45.688 155.543 45.688C154.849 45.688 154.284 45.9013 153.847 46.328C153.409 46.7547 153.191 47.4053 153.191 48.28V49.464C153.191 50.3387 153.409 50.9893 153.847 51.416C154.284 51.8427 154.849 52.056 155.543 52.056ZM165.157 44.744H166.437V48.2H168.085L169.685 45.672C169.802 45.48 169.914 45.3253 170.021 45.208C170.128 45.08 170.234 44.984 170.341 44.92C170.448 44.856 170.56 44.8133 170.677 44.792C170.794 44.76 170.928 44.744 171.077 44.744H171.829V45.864H170.837L169.541 47.912C169.456 48.0507 169.381 48.1627 169.317 48.248C169.253 48.3333 169.189 48.408 169.125 48.472C169.061 48.5253 168.992 48.5733 168.917 48.616C168.842 48.648 168.752 48.68 168.645 48.712V48.776C168.869 48.808 169.061 48.8827 169.221 49C169.392 49.1067 169.568 49.32 169.749 49.64L171.013 51.88H171.957V53H171.029C170.752 53 170.496 52.9307 170.261 52.792C170.037 52.6427 169.818 52.376 169.605 51.992L168.085 49.288H166.437V53H165.157V44.744ZM179.798 53C179.318 53 178.971 52.872 178.758 52.616C178.555 52.36 178.427 52.04 178.374 51.656H178.294C178.112 52.168 177.814 52.552 177.398 52.808C176.982 53.064 176.486 53.192 175.91 53.192C175.035 53.192 174.352 52.968 173.862 52.52C173.382 52.072 173.142 51.464 173.142 50.696C173.142 49.9173 173.424 49.32 173.99 48.904C174.566 48.488 175.456 48.28 176.661 48.28H178.294V47.464C178.294 46.8773 178.134 46.4293 177.814 46.12C177.494 45.8107 177.003 45.656 176.342 45.656C175.84 45.656 175.419 45.768 175.078 45.992C174.747 46.216 174.47 46.5147 174.246 46.888L173.478 46.168C173.702 45.72 174.059 45.3413 174.549 45.032C175.04 44.712 175.659 44.552 176.406 44.552C177.408 44.552 178.187 44.7973 178.742 45.288C179.296 45.7787 179.574 46.4613 179.574 47.336V51.88H180.517V53H179.798ZM176.118 52.104C176.438 52.104 176.731 52.0667 176.998 51.992C177.264 51.9173 177.494 51.8107 177.686 51.672C177.878 51.5333 178.027 51.3733 178.134 51.192C178.24 51.0107 178.294 50.8133 178.294 50.6V49.24H176.598C175.862 49.24 175.323 49.3467 174.982 49.56C174.651 49.7733 174.486 50.0827 174.486 50.488V50.824C174.486 51.2293 174.63 51.544 174.918 51.768C175.216 51.992 175.616 52.104 176.118 52.104ZM182.344 44.744H183.624V48.2H185.272L186.872 45.672C186.99 45.48 187.102 45.3253 187.208 45.208C187.315 45.08 187.422 44.984 187.528 44.92C187.635 44.856 187.747 44.8133 187.864 44.792C187.982 44.76 188.115 44.744 188.264 44.744H189.016V45.864H188.024L186.728 47.912C186.643 48.0507 186.568 48.1627 186.504 48.248C186.44 48.3333 186.376 48.408 186.312 48.472C186.248 48.5253 186.179 48.5733 186.104 48.616C186.03 48.648 185.939 48.68 185.832 48.712V48.776C186.056 48.808 186.248 48.8827 186.408 49C186.579 49.1067 186.755 49.32 186.936 49.64L188.2 51.88H189.144V53H188.216C187.939 53 187.683 52.9307 187.448 52.792C187.224 52.6427 187.006 52.376 186.792 51.992L185.272 49.288H183.624V53H182.344V44.744ZM191.141 44.744H192.389V49.32L192.261 51.304H192.325L193.349 49.544L196.645 44.744H197.829V53H196.581V48.424L196.709 46.44H196.645L195.621 48.2L192.325 53H191.141V44.744ZM203.652 53.192C203.086 53.192 202.574 53.0907 202.116 52.888C201.668 52.6853 201.278 52.3973 200.948 52.024C200.628 51.64 200.377 51.1867 200.196 50.664C200.025 50.1307 199.94 49.5333 199.94 48.872C199.94 48.2213 200.025 47.6293 200.196 47.096C200.377 46.5627 200.628 46.1093 200.948 45.736C201.278 45.352 201.668 45.0587 202.116 44.856C202.574 44.6533 203.086 44.552 203.652 44.552C204.206 44.552 204.702 44.6533 205.14 44.856C205.577 45.0587 205.95 45.3413 206.26 45.704C206.569 46.056 206.804 46.4773 206.964 46.968C207.134 47.4587 207.22 47.9973 207.22 48.584V49.192H201.284V49.576C201.284 49.928 201.337 50.2587 201.444 50.568C201.561 50.8667 201.721 51.128 201.924 51.352C202.137 51.576 202.393 51.752 202.692 51.88C203.001 52.008 203.348 52.072 203.732 52.072C204.254 52.072 204.708 51.9493 205.092 51.704C205.486 51.4587 205.79 51.1067 206.004 50.648L206.916 51.304C206.649 51.8693 206.233 52.328 205.668 52.68C205.102 53.0213 204.43 53.192 203.652 53.192ZM203.652 45.624C203.3 45.624 202.98 45.688 202.692 45.816C202.404 45.9333 202.153 46.104 201.94 46.328C201.737 46.552 201.577 46.8187 201.46 47.128C201.342 47.4267 201.284 47.7573 201.284 48.12V48.232H205.844V48.056C205.844 47.32 205.641 46.7333 205.236 46.296C204.841 45.848 204.313 45.624 203.652 45.624ZM219.11 53C218.63 53 218.283 52.872 218.07 52.616C217.867 52.36 217.739 52.04 217.686 51.656H217.606C217.425 52.168 217.126 52.552 216.71 52.808C216.294 53.064 215.798 53.192 215.222 53.192C214.347 53.192 213.665 52.968 213.174 52.52C212.694 52.072 212.454 51.464 212.454 50.696C212.454 49.9173 212.737 49.32 213.302 48.904C213.878 48.488 214.769 48.28 215.974 48.28H217.606V47.464C217.606 46.8773 217.446 46.4293 217.126 46.12C216.806 45.8107 216.315 45.656 215.654 45.656C215.153 45.656 214.731 45.768 214.39 45.992C214.059 46.216 213.782 46.5147 213.558 46.888L212.79 46.168C213.014 45.72 213.371 45.3413 213.862 45.032C214.353 44.712 214.971 44.552 215.718 44.552C216.721 44.552 217.499 44.7973 218.054 45.288C218.609 45.7787 218.886 46.4613 218.886 47.336V51.88H219.83V53H219.11ZM215.43 52.104C215.75 52.104 216.043 52.0667 216.31 51.992C216.577 51.9173 216.806 51.8107 216.998 51.672C217.19 51.5333 217.339 51.3733 217.446 51.192C217.553 51.0107 217.606 50.8133 217.606 50.6V49.24H215.91C215.174 49.24 214.635 49.3467 214.294 49.56C213.963 49.7733 213.798 50.0827 213.798 50.488V50.824C213.798 51.2293 213.942 51.544 214.23 51.768C214.529 51.992 214.929 52.104 215.43 52.104ZM221.657 44.744H222.937V48.2H224.585L226.185 45.672C226.302 45.48 226.414 45.3253 226.521 45.208C226.628 45.08 226.734 44.984 226.841 44.92C226.948 44.856 227.06 44.8133 227.177 44.792C227.294 44.76 227.428 44.744 227.577 44.744H228.329V45.864H227.337L226.041 47.912C225.956 48.0507 225.881 48.1627 225.817 48.248C225.753 48.3333 225.689 48.408 225.625 48.472C225.561 48.5253 225.492 48.5733 225.417 48.616C225.342 48.648 225.252 48.68 225.145 48.712V48.776C225.369 48.808 225.561 48.8827 225.721 49C225.892 49.1067 226.068 49.32 226.249 49.64L227.513 51.88H228.457V53H227.529C227.252 53 226.996 52.9307 226.761 52.792C226.537 52.6427 226.318 52.376 226.105 51.992L224.585 49.288H222.937V53H221.657V44.744ZM237.11 53H230.454V44.744H231.734V51.88H235.622V44.744H236.902V51.88H238.278V55.24H237.11V53ZM240.048 44.744H241.296V49.32L241.168 51.304H241.232L242.256 49.544L245.552 44.744H246.736V53H245.488V48.424L245.616 46.44H245.552L244.528 48.2L241.232 53H240.048V44.744ZM249.454 44.744H250.702V49.32L250.574 51.304H250.638L251.662 49.544L254.958 44.744H256.142V53H254.894V48.424L255.022 46.44H254.958L253.934 48.2L250.638 53H249.454V44.744ZM262.641 44.744H266.801C267.473 44.744 268.001 44.936 268.385 45.32C268.769 45.6933 268.961 46.2 268.961 46.84C268.961 47.8747 268.423 48.456 267.345 48.584V48.648C267.985 48.7013 268.46 48.904 268.769 49.256C269.089 49.5973 269.249 50.024 269.249 50.536C269.249 50.8667 269.196 51.1813 269.089 51.48C268.993 51.7787 268.849 52.04 268.657 52.264C268.465 52.488 268.231 52.6693 267.953 52.808C267.676 52.936 267.361 53 267.009 53H262.641V44.744ZM266.625 51.944C267.009 51.944 267.313 51.8427 267.537 51.64C267.761 51.4373 267.873 51.1493 267.873 50.776V50.408C267.873 50.0347 267.761 49.7467 267.537 49.544C267.313 49.3413 267.009 49.24 266.625 49.24H263.921V51.944H266.625ZM266.465 48.2C266.817 48.2 267.089 48.1147 267.281 47.944C267.484 47.7627 267.585 47.5067 267.585 47.176V46.824C267.585 46.4933 267.484 46.2427 267.281 46.072C267.089 45.8907 266.817 45.8 266.465 45.8H263.921V48.2H266.465ZM271.563 44.744H272.843V47.736H275.035C275.867 47.736 276.528 47.9707 277.019 48.44C277.51 48.9093 277.755 49.5547 277.755 50.376C277.755 51.208 277.515 51.8533 277.035 52.312C276.555 52.7707 275.894 53 275.051 53H271.563V44.744ZM274.859 51.88C275.339 51.88 275.712 51.7893 275.979 51.608C276.246 51.4267 276.379 51.1227 276.379 50.696V50.024C276.379 49.5973 276.246 49.2987 275.979 49.128C275.712 48.9467 275.339 48.856 274.859 48.856H272.843V51.88H274.859ZM279.147 44.744H280.427V53H279.147V44.744ZM285.899 53L288.955 48.84L286.027 44.744H287.531L289.627 47.816H289.674L291.851 44.744H293.275L290.363 48.744L293.339 53H291.835L289.691 49.768H289.643L287.323 53H285.899ZM297.964 53.192C297.41 53.192 296.903 53.0907 296.444 52.888C295.986 52.6853 295.591 52.3973 295.26 52.024C294.94 51.64 294.69 51.1867 294.508 50.664C294.327 50.1307 294.236 49.5333 294.236 48.872C294.236 48.2213 294.327 47.6293 294.508 47.096C294.69 46.5627 294.94 46.1093 295.26 45.736C295.591 45.352 295.986 45.0587 296.444 44.856C296.903 44.6533 297.41 44.552 297.964 44.552C298.519 44.552 299.02 44.6533 299.468 44.856C299.927 45.0587 300.322 45.352 300.652 45.736C300.983 46.1093 301.239 46.5627 301.42 47.096C301.602 47.6293 301.692 48.2213 301.692 48.872C301.692 49.5333 301.602 50.1307 301.42 50.664C301.239 51.1867 300.983 51.64 300.652 52.024C300.322 52.3973 299.927 52.6853 299.468 52.888C299.02 53.0907 298.519 53.192 297.964 53.192ZM297.964 52.056C298.658 52.056 299.223 51.8427 299.66 51.416C300.098 50.9893 300.316 50.3387 300.316 49.464V48.28C300.316 47.4053 300.098 46.7547 299.66 46.328C299.223 45.9013 298.658 45.688 297.964 45.688C297.271 45.688 296.706 45.9013 296.268 46.328C295.831 46.7547 295.612 47.4053 295.612 48.28V49.464C295.612 50.3387 295.831 50.9893 296.268 51.416C296.706 51.8427 297.271 52.056 297.964 52.056ZM305.37 45.864H302.554V44.744H309.466V45.864H306.65V53H305.37V45.864ZM311.141 44.744H312.389V49.32L312.261 51.304H312.325L313.349 49.544L316.645 44.744H317.829V53H316.581V48.424L316.709 46.44H316.645L315.621 48.2L312.325 53H311.141V44.744ZM322.324 45.864H319.508V44.744H326.42V45.864H323.604V53H322.324V45.864ZM330.995 53.192C330.43 53.192 329.918 53.0907 329.459 52.888C329.011 52.6853 328.622 52.3973 328.291 52.024C327.971 51.64 327.721 51.1867 327.539 50.664C327.369 50.1307 327.283 49.5333 327.283 48.872C327.283 48.2213 327.369 47.6293 327.539 47.096C327.721 46.5627 327.971 46.1093 328.291 45.736C328.622 45.352 329.011 45.0587 329.459 44.856C329.918 44.6533 330.43 44.552 330.995 44.552C331.55 44.552 332.046 44.6533 332.483 44.856C332.921 45.0587 333.294 45.3413 333.603 45.704C333.913 46.056 334.147 46.4773 334.307 46.968C334.478 47.4587 334.563 47.9973 334.563 48.584V49.192H328.627V49.576C328.627 49.928 328.681 50.2587 328.787 50.568C328.905 50.8667 329.065 51.128 329.267 51.352C329.481 51.576 329.737 51.752 330.035 51.88C330.345 52.008 330.691 52.072 331.075 52.072C331.598 52.072 332.051 51.9493 332.435 51.704C332.83 51.4587 333.134 51.1067 333.347 50.648L334.259 51.304C333.993 51.8693 333.577 52.328 333.011 52.68C332.446 53.0213 331.774 53.192 330.995 53.192ZM330.995 45.624C330.643 45.624 330.323 45.688 330.035 45.816C329.747 45.9333 329.497 46.104 329.283 46.328C329.081 46.552 328.921 46.8187 328.803 47.128C328.686 47.4267 328.627 47.7573 328.627 48.12V48.232H333.187V48.056C333.187 47.32 332.985 46.7333 332.579 46.296C332.185 45.848 331.657 45.624 330.995 45.624ZM75.448 65.744H76.712L73.016 75.92C72.92 76.1653 72.824 76.368 72.728 76.528C72.632 76.6987 72.5147 76.832 72.376 76.928C72.2373 77.024 72.0613 77.0933 71.848 77.136C71.6453 77.1787 71.3947 77.2 71.096 77.2H70.44V76.08H71.736L72.36 74.32L69.272 65.744H70.552L72.536 71.36L72.92 72.704H73L73.448 71.36L75.448 65.744ZM80.6804 74.192C79.8377 74.192 79.1657 74.048 78.6644 73.76C78.163 73.472 77.7524 73.0613 77.4324 72.528L78.3924 71.76C78.6057 72.1653 78.899 72.4853 79.2724 72.72C79.6564 72.944 80.1257 73.056 80.6804 73.056C81.3524 73.056 81.8484 72.9333 82.1684 72.688C82.499 72.4427 82.6644 72.128 82.6644 71.744V71.552C82.6644 71.136 82.5204 70.8213 82.2324 70.608C81.955 70.384 81.5604 70.272 81.0484 70.272H79.2884V69.2H80.8884C81.4004 69.2 81.795 69.0987 82.0724 68.896C82.3497 68.6933 82.4884 68.4053 82.4884 68.032V67.84C82.4884 67.488 82.3444 67.2107 82.0564 67.008C81.779 66.7947 81.3097 66.688 80.6484 66.688C80.1044 66.688 79.6564 66.8 79.3044 67.024C78.9524 67.2373 78.6697 67.5307 78.4564 67.904L77.6084 67.184C77.8644 66.704 78.2377 66.3147 78.7284 66.016C79.2297 65.7067 79.891 65.552 80.7124 65.552C81.7897 65.552 82.5844 65.7493 83.0964 66.144C83.6084 66.5387 83.8644 67.0827 83.8644 67.776C83.8644 68.288 83.7257 68.6933 83.4484 68.992C83.1817 69.2907 82.7924 69.4987 82.2804 69.616V69.68C82.867 69.7653 83.3044 69.9787 83.5924 70.32C83.891 70.6507 84.0404 71.0773 84.0404 71.6C84.0404 72.4 83.7364 73.0347 83.1284 73.504C82.531 73.9627 81.715 74.192 80.6804 74.192ZM86.36 65.744H87.64V69.184H91.768V65.744H93.048V74H91.768V70.304H87.64V74H86.36V65.744ZM101.766 74C101.286 74 100.94 73.872 100.726 73.616C100.524 73.36 100.396 73.04 100.342 72.656H100.262C100.081 73.168 99.7823 73.552 99.3663 73.808C98.9503 74.064 98.4543 74.192 97.8783 74.192C97.0036 74.192 96.3209 73.968 95.8303 73.52C95.3503 73.072 95.1103 72.464 95.1103 71.696C95.1103 70.9173 95.3929 70.32 95.9583 69.904C96.5343 69.488 97.4249 69.28 98.6302 69.28H100.262V68.464C100.262 67.8773 100.102 67.4293 99.7823 67.12C99.4623 66.8107 98.9716 66.656 98.3103 66.656C97.8089 66.656 97.3876 66.768 97.0463 66.992C96.7156 67.216 96.4383 67.5147 96.2143 67.888L95.4463 67.168C95.6703 66.72 96.0276 66.3413 96.5182 66.032C97.0089 65.712 97.6276 65.552 98.3743 65.552C99.3769 65.552 100.156 65.7973 100.71 66.288C101.265 66.7787 101.542 67.4613 101.542 68.336V72.88H102.486V74H101.766ZM98.0863 73.104C98.4063 73.104 98.6996 73.0667 98.9663 72.992C99.2329 72.9173 99.4623 72.8107 99.6543 72.672C99.8463 72.5333 99.9956 72.3733 100.102 72.192C100.209 72.0107 100.262 71.8133 100.262 71.6V70.24H98.5663C97.8303 70.24 97.2916 70.3467 96.9503 70.56C96.6196 70.7733 96.4543 71.0827 96.4543 71.488V71.824C96.4543 72.2293 96.5983 72.544 96.8863 72.768C97.1849 72.992 97.5849 73.104 98.0863 73.104ZM105.792 66.864H102.976V65.744H109.888V66.864H107.072V74H105.792V66.864ZM111.563 65.744H112.843V68.736H115.195C116.027 68.736 116.688 68.9707 117.179 69.44C117.67 69.9093 117.915 70.5547 117.915 71.376C117.915 72.208 117.675 72.8533 117.195 73.312C116.715 73.7707 116.054 74 115.211 74H111.563V65.744ZM115.019 72.88C115.499 72.88 115.872 72.7893 116.139 72.608C116.406 72.4267 116.539 72.1227 116.539 71.696V71.024C116.539 70.5973 116.406 70.2987 116.139 70.128C115.872 69.9467 115.499 69.856 115.019 69.856H112.843V72.88H115.019ZM120.973 70.672V68.048C121.848 68.0053 122.531 67.792 123.021 67.408C123.523 67.024 123.773 66.496 123.773 65.824V65.6C123.773 65.056 123.603 64.624 123.261 64.304C122.92 63.9733 122.461 63.808 121.885 63.808C121.267 63.808 120.771 63.984 120.397 64.336C120.035 64.688 119.789 65.136 119.661 65.68L118.477 65.232C118.573 64.8907 118.712 64.5653 118.893 64.256C119.085 63.936 119.32 63.6587 119.597 63.424C119.885 63.1787 120.221 62.9867 120.605 62.848C120.989 62.7093 121.432 62.64 121.933 62.64C122.925 62.64 123.709 62.912 124.285 63.456C124.861 64 125.149 64.736 125.149 65.664C125.149 66.176 125.059 66.624 124.877 67.008C124.707 67.3813 124.483 67.7013 124.205 67.968C123.928 68.2347 123.613 68.448 123.261 68.608C122.909 68.768 122.557 68.88 122.205 68.944V70.672H120.973ZM121.597 74.192C121.256 74.192 121.005 74.1067 120.845 73.936C120.696 73.7653 120.621 73.5413 120.621 73.264V73.056C120.621 72.7787 120.696 72.5547 120.845 72.384C121.005 72.2133 121.256 72.128 121.597 72.128C121.939 72.128 122.184 72.2133 122.333 72.384C122.493 72.5547 122.573 72.7787 122.573 73.056V73.264C122.573 73.5413 122.493 73.7653 122.333 73.936C122.184 74.1067 121.939 74.192 121.597 74.192Z" fill="black"/>
<path d="M71 26.5H337C343.351 26.5 348.5 31.6487 348.5 38V76C348.5 82.3513 343.351 87.5 337 87.5H59.5V38C59.5 31.6487 64.6487 26.5 71 26.5Z" stroke="#2B0FDB"/>
<circle cx="27" cy="214" r="16.575" fill="white" stroke="black" stroke-width="0.85"/>
<path d="M28.275 211.45L26.575 214.425L28.275 214L26.575 217.4" stroke="black" stroke-width="0.85"/>
<rect x="18.5" y="207.2" width="3.4" height="3.4" fill="black"/>
<rect x="32.95" y="207.2" width="3.4" height="3.4" fill="black"/>
<line x1="20.2" y1="221.225" x2="35.5" y2="221.225" stroke="black" stroke-width="0.85"/>
<path d="M59 220V231H50L59 220Z" fill="#2B0FDB"/>
<path d="M77.48 196L76.36 192.704H71.848L70.728 196H69.368L73.272 184.832H74.984L78.888 196H77.48ZM74.136 186.08H74.056L72.168 191.52H76.024L74.136 186.08ZM80.61 187.744H81.89V191.2H83.538L85.138 188.672C85.2553 188.48 85.3673 188.325 85.474 188.208C85.5807 188.08 85.6873 187.984 85.794 187.92C85.9007 187.856 86.0127 187.813 86.13 187.792C86.2473 187.76 86.3807 187.744 86.53 187.744H87.282V188.864H86.29L84.994 190.912C84.9087 191.051 84.834 191.163 84.77 191.248C84.706 191.333 84.642 191.408 84.578 191.472C84.514 191.525 84.4447 191.573 84.37 191.616C84.2953 191.648 84.2047 191.68 84.098 191.712V191.776C84.322 191.808 84.514 191.883 84.674 192C84.8447 192.107 85.0207 192.32 85.202 192.64L86.466 194.88H87.41V196H86.482C86.2047 196 85.9487 195.931 85.714 195.792C85.49 195.643 85.2713 195.376 85.058 194.992L83.538 192.288H81.89V196H80.61V187.744ZM96.0629 196H89.4069V187.744H90.6869V194.88H94.5749V187.744H95.8549V194.88H97.2309V198.24H96.0629V196ZM99.0006 187.744H100.249V192.32L100.121 194.304H100.185L101.209 192.544L104.505 187.744H105.689V196H104.441V191.424L104.569 189.44H104.505L103.481 191.2L100.185 196H99.0006V187.744ZM108.407 187.744H109.655V192.32L109.527 194.304H109.591L110.615 192.544L113.911 187.744H115.095V196H113.847V191.424L113.975 189.44H113.911L112.887 191.2L109.591 196H108.407V187.744ZM128.714 196L127.594 192.704H123.082L121.962 196H120.602L124.506 184.832H126.218L130.122 196H128.714ZM125.37 186.08H125.29L123.402 191.52H127.258L125.37 186.08ZM131.972 196V184.832H136.42C137.423 184.832 138.191 185.12 138.724 185.696C139.268 186.261 139.54 187.04 139.54 188.032C139.54 189.024 139.268 189.808 138.724 190.384C138.191 190.949 137.423 191.232 136.42 191.232H133.316V196H131.972ZM133.316 190.048H136.42C136.954 190.048 137.364 189.909 137.652 189.632C137.951 189.355 138.1 188.96 138.1 188.448V187.616C138.1 187.104 137.951 186.709 137.652 186.432C137.364 186.155 136.954 186.016 136.42 186.016H133.316V190.048ZM141.676 196V184.832H146.124C147.126 184.832 147.894 185.12 148.428 185.696C148.972 186.261 149.244 187.04 149.244 188.032C149.244 189.024 148.972 189.808 148.428 190.384C147.894 190.949 147.126 191.232 146.124 191.232H143.02V196H141.676ZM143.02 190.048H146.124C146.657 190.048 147.068 189.909 147.356 189.632C147.654 189.355 147.804 188.96 147.804 188.448V187.616C147.804 187.104 147.654 186.709 147.356 186.432C147.068 186.155 146.657 186.016 146.124 186.016H143.02V190.048ZM151.379 196V184.832H152.723V194.816H157.475V196H151.379ZM169.901 196.192C169.325 196.192 168.807 196.091 168.349 195.888C167.89 195.685 167.501 195.397 167.181 195.024C166.871 194.651 166.631 194.197 166.461 193.664C166.301 193.131 166.221 192.533 166.221 191.872C166.221 191.211 166.301 190.613 166.461 190.08C166.631 189.547 166.871 189.093 167.181 188.72C167.501 188.347 167.89 188.059 168.349 187.856C168.807 187.653 169.325 187.552 169.901 187.552C170.722 187.552 171.378 187.733 171.869 188.096C172.37 188.448 172.743 188.912 172.989 189.488L171.917 190.032C171.767 189.605 171.522 189.275 171.181 189.04C170.839 188.805 170.413 188.688 169.901 188.688C169.517 188.688 169.181 188.752 168.893 188.88C168.605 188.997 168.365 189.168 168.173 189.392C167.981 189.605 167.837 189.867 167.741 190.176C167.645 190.475 167.597 190.805 167.597 191.168V192.576C167.597 193.301 167.789 193.899 168.173 194.368C168.567 194.827 169.143 195.056 169.901 195.056C170.935 195.056 171.682 194.576 172.141 193.616L173.069 194.24C172.802 194.837 172.402 195.312 171.869 195.664C171.346 196.016 170.69 196.192 169.901 196.192ZM177.886 196.192C177.321 196.192 176.809 196.091 176.35 195.888C175.902 195.685 175.513 195.397 175.182 195.024C174.862 194.64 174.611 194.187 174.43 193.664C174.259 193.131 174.174 192.533 174.174 191.872C174.174 191.221 174.259 190.629 174.43 190.096C174.611 189.563 174.862 189.109 175.182 188.736C175.513 188.352 175.902 188.059 176.35 187.856C176.809 187.653 177.321 187.552 177.886 187.552C178.441 187.552 178.937 187.653 179.374 187.856C179.811 188.059 180.185 188.341 180.494 188.704C180.803 189.056 181.038 189.477 181.198 189.968C181.369 190.459 181.454 190.997 181.454 191.584V192.192H175.518V192.576C175.518 192.928 175.571 193.259 175.678 193.568C175.795 193.867 175.955 194.128 176.158 194.352C176.371 194.576 176.627 194.752 176.926 194.88C177.235 195.008 177.582 195.072 177.966 195.072C178.489 195.072 178.942 194.949 179.326 194.704C179.721 194.459 180.025 194.107 180.238 193.648L181.15 194.304C180.883 194.869 180.467 195.328 179.902 195.68C179.337 196.021 178.665 196.192 177.886 196.192ZM177.886 188.624C177.534 188.624 177.214 188.688 176.926 188.816C176.638 188.933 176.387 189.104 176.174 189.328C175.971 189.552 175.811 189.819 175.694 190.128C175.577 190.427 175.518 190.757 175.518 191.12V191.232H180.078V191.056C180.078 190.32 179.875 189.733 179.47 189.296C179.075 188.848 178.547 188.624 177.886 188.624ZM183.563 187.744H184.811V192.32L184.683 194.304H184.747L185.771 192.544L189.067 187.744H190.251V196H189.003V191.424L189.131 189.44H189.067L188.043 191.2L184.747 196H183.563V187.744ZM186.939 186.464C186.363 186.464 185.904 186.352 185.563 186.128C185.222 185.893 184.95 185.589 184.747 185.216L184.427 184.608L185.547 184.112L186.107 185.424C186.235 185.456 186.374 185.483 186.523 185.504C186.672 185.515 186.811 185.52 186.939 185.52C187.067 185.52 187.206 185.515 187.355 185.504C187.504 185.483 187.643 185.456 187.771 185.424L188.331 184.112L189.451 184.608L189.131 185.216C188.928 185.589 188.656 185.893 188.315 186.128C187.974 186.352 187.515 186.464 186.939 186.464ZM197.577 192.208H197.497C197.241 192.496 196.927 192.736 196.553 192.928C196.18 193.109 195.689 193.2 195.081 193.2C194.239 193.2 193.583 192.992 193.113 192.576C192.644 192.149 192.409 191.509 192.409 190.656V187.744H193.689V190.544C193.689 191.547 194.281 192.048 195.465 192.048C196.073 192.048 196.575 191.968 196.969 191.808C197.375 191.637 197.577 191.381 197.577 191.04V187.744H198.857V196H197.577V192.208ZM207.579 196C207.099 196 206.752 195.872 206.539 195.616C206.336 195.36 206.208 195.04 206.155 194.656H206.075C205.893 195.168 205.595 195.552 205.179 195.808C204.763 196.064 204.267 196.192 203.691 196.192C202.816 196.192 202.133 195.968 201.643 195.52C201.163 195.072 200.923 194.464 200.923 193.696C200.923 192.917 201.205 192.32 201.771 191.904C202.347 191.488 203.237 191.28 204.443 191.28H206.075V190.464C206.075 189.877 205.915 189.429 205.595 189.12C205.275 188.811 204.784 188.656 204.123 188.656C203.621 188.656 203.2 188.768 202.859 188.992C202.528 189.216 202.251 189.515 202.027 189.888L201.259 189.168C201.483 188.72 201.84 188.341 202.331 188.032C202.821 187.712 203.44 187.552 204.187 187.552C205.189 187.552 205.968 187.797 206.523 188.288C207.077 188.779 207.355 189.461 207.355 190.336V194.88H208.299V196H207.579ZM203.899 195.104C204.219 195.104 204.512 195.067 204.779 194.992C205.045 194.917 205.275 194.811 205.467 194.672C205.659 194.533 205.808 194.373 205.915 194.192C206.021 194.011 206.075 193.813 206.075 193.6V192.24H204.379C203.643 192.24 203.104 192.347 202.763 192.56C202.432 192.773 202.267 193.083 202.267 193.488V193.824C202.267 194.229 202.411 194.544 202.699 194.768C202.997 194.992 203.397 195.104 203.899 195.104ZM213.198 196.192C212.622 196.192 212.104 196.091 211.646 195.888C211.187 195.685 210.798 195.397 210.478 195.024C210.168 194.651 209.928 194.197 209.758 193.664C209.598 193.131 209.518 192.533 209.518 191.872C209.518 191.211 209.598 190.613 209.758 190.08C209.928 189.547 210.168 189.093 210.478 188.72C210.798 188.347 211.187 188.059 211.646 187.856C212.104 187.653 212.622 187.552 213.198 187.552C214.019 187.552 214.675 187.733 215.166 188.096C215.667 188.448 216.04 188.912 216.286 189.488L215.214 190.032C215.064 189.605 214.819 189.275 214.478 189.04C214.136 188.805 213.71 188.688 213.198 188.688C212.814 188.688 212.478 188.752 212.19 188.88C211.902 188.997 211.662 189.168 211.47 189.392C211.278 189.605 211.134 189.867 211.038 190.176C210.942 190.475 210.894 190.805 210.894 191.168V192.576C210.894 193.301 211.086 193.899 211.47 194.368C211.864 194.827 212.44 195.056 213.198 195.056C214.232 195.056 214.979 194.576 215.438 193.616L216.366 194.24C216.099 194.837 215.699 195.312 215.166 195.664C214.643 196.016 213.987 196.192 213.198 196.192ZM221.954 187.744H223.234V189.088H223.298C223.511 188.565 223.82 188.181 224.226 187.936C224.642 187.68 225.138 187.552 225.714 187.552C226.226 187.552 226.69 187.653 227.106 187.856C227.522 188.059 227.874 188.347 228.162 188.72C228.46 189.093 228.684 189.547 228.834 190.08C228.994 190.613 229.074 191.211 229.074 191.872C229.074 192.533 228.994 193.131 228.834 193.664C228.684 194.197 228.46 194.651 228.162 195.024C227.874 195.397 227.522 195.685 227.106 195.888C226.69 196.091 226.226 196.192 225.714 196.192C224.594 196.192 223.788 195.68 223.298 194.656H223.234V199.2H221.954V187.744ZM225.362 195.04C226.087 195.04 226.658 194.816 227.074 194.368C227.49 193.909 227.698 193.312 227.698 192.576V191.168C227.698 190.432 227.49 189.84 227.074 189.392C226.658 188.933 226.087 188.704 225.362 188.704C225.074 188.704 224.796 188.747 224.53 188.832C224.274 188.907 224.05 189.013 223.858 189.152C223.666 189.291 223.511 189.461 223.394 189.664C223.287 189.856 223.234 190.064 223.234 190.288V193.36C223.234 193.627 223.287 193.867 223.394 194.08C223.511 194.283 223.666 194.459 223.858 194.608C224.05 194.747 224.274 194.853 224.53 194.928C224.796 195.003 225.074 195.04 225.362 195.04ZM237.235 196C236.755 196 236.408 195.872 236.195 195.616C235.992 195.36 235.864 195.04 235.811 194.656H235.731C235.55 195.168 235.251 195.552 234.835 195.808C234.419 196.064 233.923 196.192 233.347 196.192C232.472 196.192 231.79 195.968 231.299 195.52C230.819 195.072 230.579 194.464 230.579 193.696C230.579 192.917 230.862 192.32 231.427 191.904C232.003 191.488 232.894 191.28 234.099 191.28H235.731V190.464C235.731 189.877 235.571 189.429 235.251 189.12C234.931 188.811 234.44 188.656 233.779 188.656C233.278 188.656 232.856 188.768 232.515 188.992C232.184 189.216 231.907 189.515 231.683 189.888L230.915 189.168C231.139 188.72 231.496 188.341 231.987 188.032C232.478 187.712 233.096 187.552 233.843 187.552C234.846 187.552 235.624 187.797 236.179 188.288C236.734 188.779 237.011 189.461 237.011 190.336V194.88H237.955V196H237.235ZM233.555 195.104C233.875 195.104 234.168 195.067 234.435 194.992C234.702 194.917 234.931 194.811 235.123 194.672C235.315 194.533 235.464 194.373 235.571 194.192C235.678 194.011 235.731 193.813 235.731 193.6V192.24H234.035C233.299 192.24 232.76 192.347 232.419 192.56C232.088 192.773 231.923 193.083 231.923 193.488V193.824C231.923 194.229 232.067 194.544 232.355 194.768C232.654 194.992 233.054 195.104 233.555 195.104ZM242.854 196.192C242.278 196.192 241.761 196.091 241.302 195.888C240.843 195.685 240.454 195.397 240.134 195.024C239.825 194.651 239.585 194.197 239.414 193.664C239.254 193.131 239.174 192.533 239.174 191.872C239.174 191.211 239.254 190.613 239.414 190.08C239.585 189.547 239.825 189.093 240.134 188.72C240.454 188.347 240.843 188.059 241.302 187.856C241.761 187.653 242.278 187.552 242.854 187.552C243.675 187.552 244.331 187.733 244.822 188.096C245.323 188.448 245.697 188.912 245.942 189.488L244.87 190.032C244.721 189.605 244.475 189.275 244.134 189.04C243.793 188.805 243.366 188.688 242.854 188.688C242.47 188.688 242.134 188.752 241.846 188.88C241.558 188.997 241.318 189.168 241.126 189.392C240.934 189.605 240.79 189.867 240.694 190.176C240.598 190.475 240.55 190.805 240.55 191.168V192.576C240.55 193.301 240.742 193.899 241.126 194.368C241.521 194.827 242.097 195.056 242.854 195.056C243.889 195.056 244.635 194.576 245.094 193.616L246.022 194.24C245.755 194.837 245.355 195.312 244.822 195.664C244.299 196.016 243.643 196.192 242.854 196.192ZM249.667 188.864H246.851V187.744H253.763V188.864H250.947V196H249.667V188.864ZM260.667 187.744H261.931L258.235 197.92C258.139 198.165 258.043 198.368 257.947 198.528C257.851 198.699 257.733 198.832 257.595 198.928C257.456 199.024 257.28 199.093 257.067 199.136C256.864 199.179 256.613 199.2 256.315 199.2H255.659V198.08H256.955L257.579 196.32L254.491 187.744H255.771L257.755 193.36L258.139 194.704H258.219L258.667 193.36L260.667 187.744ZM265.449 188.864H262.633V187.744H269.545V188.864H266.729V196H265.449V188.864ZM275.817 194.128C276.158 194.128 276.403 194.219 276.553 194.4C276.713 194.571 276.793 194.795 276.793 195.072V195.296C276.793 195.733 276.665 196.213 276.409 196.736C276.153 197.269 275.795 197.733 275.337 198.128H274.265C274.585 197.787 274.841 197.461 275.033 197.152C275.235 196.853 275.379 196.517 275.465 196.144C275.251 196.091 275.091 195.989 274.985 195.84C274.889 195.691 274.841 195.509 274.841 195.296V195.072C274.841 194.795 274.915 194.571 275.065 194.4C275.225 194.219 275.475 194.128 275.817 194.128ZM283.141 187.744H284.421V191.184H288.549V187.744H289.829V196H288.549V192.304H284.421V196H283.141V187.744ZM298.548 196C298.068 196 297.721 195.872 297.508 195.616C297.305 195.36 297.177 195.04 297.124 194.656H297.044C296.862 195.168 296.564 195.552 296.148 195.808C295.732 196.064 295.236 196.192 294.66 196.192C293.785 196.192 293.102 195.968 292.612 195.52C292.132 195.072 291.892 194.464 291.892 193.696C291.892 192.917 292.174 192.32 292.74 191.904C293.316 191.488 294.206 191.28 295.411 191.28H297.044V190.464C297.044 189.877 296.884 189.429 296.564 189.12C296.244 188.811 295.753 188.656 295.092 188.656C294.59 188.656 294.169 188.768 293.828 188.992C293.497 189.216 293.22 189.515 292.996 189.888L292.228 189.168C292.452 188.72 292.809 188.341 293.299 188.032C293.79 187.712 294.409 187.552 295.156 187.552C296.158 187.552 296.937 187.797 297.492 188.288C298.046 188.779 298.324 189.461 298.324 190.336V194.88H299.267V196H298.548ZM294.868 195.104C295.188 195.104 295.481 195.067 295.748 194.992C296.014 194.917 296.244 194.811 296.436 194.672C296.628 194.533 296.777 194.373 296.884 194.192C296.99 194.011 297.044 193.813 297.044 193.6V192.24H295.348C294.612 192.24 294.073 192.347 293.732 192.56C293.401 192.773 293.236 193.083 293.236 193.488V193.824C293.236 194.229 293.38 194.544 293.668 194.768C293.966 194.992 294.366 195.104 294.868 195.104ZM315.825 196H308.497V194.624L312.145 191.264C312.668 190.784 313.105 190.277 313.457 189.744C313.809 189.2 313.985 188.656 313.985 188.112V187.92C313.985 187.301 313.814 186.8 313.473 186.416C313.132 186.032 312.614 185.84 311.921 185.84C311.58 185.84 311.281 185.888 311.025 185.984C310.769 186.08 310.545 186.213 310.353 186.384C310.172 186.555 310.017 186.757 309.889 186.992C309.772 187.216 309.676 187.461 309.601 187.728L308.401 187.264C308.508 186.933 308.652 186.613 308.833 186.304C309.025 185.984 309.26 185.701 309.537 185.456C309.825 185.211 310.166 185.013 310.561 184.864C310.966 184.715 311.441 184.64 311.985 184.64C312.529 184.64 313.014 184.72 313.441 184.88C313.868 185.04 314.225 185.264 314.513 185.552C314.801 185.84 315.02 186.181 315.169 186.576C315.329 186.971 315.409 187.408 315.409 187.888C315.409 188.325 315.345 188.731 315.217 189.104C315.1 189.477 314.934 189.835 314.721 190.176C314.508 190.507 314.246 190.832 313.937 191.152C313.638 191.472 313.313 191.792 312.961 192.112L309.953 194.816H315.825V196ZM321.691 196.192C320.357 196.192 319.381 195.685 318.763 194.672C318.155 193.659 317.851 192.24 317.851 190.416C317.851 188.592 318.155 187.173 318.763 186.16C319.381 185.147 320.357 184.64 321.691 184.64C323.024 184.64 323.995 185.147 324.603 186.16C325.221 187.173 325.531 188.592 325.531 190.416C325.531 192.24 325.221 193.659 324.603 194.672C323.995 195.685 323.024 196.192 321.691 196.192ZM321.691 195.024C322.128 195.024 322.501 194.933 322.811 194.752C323.12 194.571 323.371 194.315 323.563 193.984C323.755 193.653 323.893 193.264 323.979 192.816C324.075 192.368 324.123 191.872 324.123 191.328V189.504C324.123 188.96 324.075 188.464 323.979 188.016C323.893 187.568 323.755 187.179 323.563 186.848C323.371 186.517 323.12 186.261 322.811 186.08C322.501 185.899 322.128 185.808 321.691 185.808C321.253 185.808 320.88 185.899 320.571 186.08C320.261 186.261 320.011 186.517 319.819 186.848C319.627 187.179 319.483 187.568 319.387 188.016C319.301 188.464 319.259 188.96 319.259 189.504V191.328C319.259 191.872 319.301 192.368 319.387 192.816C319.483 193.264 319.627 193.653 319.819 193.984C320.011 194.315 320.261 194.571 320.571 194.752C320.88 194.933 321.253 195.024 321.691 195.024ZM329.412 196L337.156 184.832H338.388L330.644 196H329.412ZM330.052 190.976C329.242 190.976 328.618 190.709 328.18 190.176C327.743 189.632 327.524 188.843 327.524 187.808C327.524 186.773 327.743 185.989 328.18 185.456C328.618 184.912 329.242 184.64 330.052 184.64C330.863 184.64 331.487 184.912 331.924 185.456C332.362 185.989 332.58 186.773 332.58 187.808C332.58 188.843 332.362 189.632 331.924 190.176C331.487 190.709 330.863 190.976 330.052 190.976ZM330.052 190.144C330.97 190.144 331.428 189.525 331.428 188.288V187.328C331.428 186.091 330.97 185.472 330.052 185.472C329.135 185.472 328.676 186.091 328.676 187.328V188.288C328.676 189.525 329.135 190.144 330.052 190.144ZM337.748 196.192C336.938 196.192 336.314 195.925 335.876 195.392C335.439 194.848 335.22 194.059 335.22 193.024C335.22 191.989 335.439 191.205 335.876 190.672C336.314 190.128 336.938 189.856 337.748 189.856C338.559 189.856 339.183 190.128 339.62 190.672C340.058 191.205 340.276 191.989 340.276 193.024C340.276 194.059 340.058 194.848 339.62 195.392C339.183 195.925 338.559 196.192 337.748 196.192ZM337.748 195.36C338.666 195.36 339.124 194.741 339.124 193.504V192.544C339.124 191.307 338.666 190.688 337.748 190.688C336.831 190.688 336.372 191.307 336.372 192.544V193.504C336.372 194.741 336.831 195.36 337.748 195.36ZM72.696 217.192C71.8533 217.192 71.1813 217.048 70.68 216.76C70.1787 216.472 69.768 216.061 69.448 215.528L70.408 214.76C70.6213 215.165 70.9147 215.485 71.288 215.72C71.672 215.944 72.1413 216.056 72.696 216.056C73.368 216.056 73.864 215.933 74.184 215.688C74.5147 215.443 74.68 215.128 74.68 214.744V214.552C74.68 214.136 74.536 213.821 74.248 213.608C73.9707 213.384 73.576 213.272 73.064 213.272H71.304V212.2H72.904C73.416 212.2 73.8107 212.099 74.088 211.896C74.3653 211.693 74.504 211.405 74.504 211.032V210.84C74.504 210.488 74.36 210.211 74.072 210.008C73.7947 209.795 73.3253 209.688 72.664 209.688C72.12 209.688 71.672 209.8 71.32 210.024C70.968 210.237 70.6853 210.531 70.472 210.904L69.624 210.184C69.88 209.704 70.2533 209.315 70.744 209.016C71.2453 208.707 71.9067 208.552 72.728 208.552C73.8053 208.552 74.6 208.749 75.112 209.144C75.624 209.539 75.88 210.083 75.88 210.776C75.88 211.288 75.7413 211.693 75.464 211.992C75.1973 212.291 74.808 212.499 74.296 212.616V212.68C74.8827 212.765 75.32 212.979 75.608 213.32C75.9067 213.651 76.056 214.077 76.056 214.6C76.056 215.4 75.752 216.035 75.144 216.504C74.5467 216.963 73.7307 217.192 72.696 217.192ZM84.2975 217C83.8175 217 83.4708 216.872 83.2575 216.616C83.0548 216.36 82.9268 216.04 82.8735 215.656H82.7935C82.6122 216.168 82.3135 216.552 81.8975 216.808C81.4815 217.064 80.9855 217.192 80.4095 217.192C79.5348 217.192 78.8522 216.968 78.3615 216.52C77.8815 216.072 77.6415 215.464 77.6415 214.696C77.6415 213.917 77.9242 213.32 78.4895 212.904C79.0655 212.488 79.9562 212.28 81.1615 212.28H82.7935V211.464C82.7935 210.877 82.6335 210.429 82.3135 210.12C81.9935 209.811 81.5028 209.656 80.8415 209.656C80.3402 209.656 79.9188 209.768 79.5775 209.992C79.2468 210.216 78.9695 210.515 78.7455 210.888L77.9775 210.168C78.2015 209.72 78.5588 209.341 79.0495 209.032C79.5402 208.712 80.1588 208.552 80.9055 208.552C81.9082 208.552 82.6868 208.797 83.2415 209.288C83.7962 209.779 84.0735 210.461 84.0735 211.336V215.88H85.0175V217H84.2975ZM80.6175 216.104C80.9375 216.104 81.2308 216.067 81.4975 215.992C81.7642 215.917 81.9935 215.811 82.1855 215.672C82.3775 215.533 82.5268 215.373 82.6335 215.192C82.7402 215.011 82.7935 214.813 82.7935 214.6V213.24H81.0975C80.3615 213.24 79.8228 213.347 79.4815 213.56C79.1508 213.773 78.9855 214.083 78.9855 214.488V214.824C78.9855 215.229 79.1295 215.544 79.4175 215.768C79.7162 215.992 80.1162 216.104 80.6175 216.104ZM93.6976 217.192C93.1216 217.192 92.6043 217.091 92.1456 216.888C91.687 216.685 91.2976 216.397 90.9776 216.024C90.6683 215.651 90.4283 215.197 90.2576 214.664C90.0976 214.131 90.0176 213.533 90.0176 212.872C90.0176 212.211 90.0976 211.613 90.2576 211.08C90.4283 210.547 90.6683 210.093 90.9776 209.72C91.2976 209.347 91.687 209.059 92.1456 208.856C92.6043 208.653 93.1216 208.552 93.6976 208.552C94.519 208.552 95.175 208.733 95.6656 209.096C96.167 209.448 96.5403 209.912 96.7856 210.488L95.7136 211.032C95.5643 210.605 95.319 210.275 94.9776 210.04C94.6363 209.805 94.2096 209.688 93.6976 209.688C93.3136 209.688 92.9776 209.752 92.6896 209.88C92.4016 209.997 92.1616 210.168 91.9696 210.392C91.7776 210.605 91.6336 210.867 91.5376 211.176C91.4416 211.475 91.3936 211.805 91.3936 212.168V213.576C91.3936 214.301 91.5856 214.899 91.9696 215.368C92.3643 215.827 92.9403 216.056 93.6976 216.056C94.7323 216.056 95.479 215.576 95.9376 214.616L96.8656 215.24C96.599 215.837 96.199 216.312 95.6656 216.664C95.143 217.016 94.487 217.192 93.6976 217.192ZM101.683 217.192C101.117 217.192 100.605 217.091 100.147 216.888C99.6988 216.685 99.3094 216.397 98.9788 216.024C98.6588 215.64 98.4081 215.187 98.2268 214.664C98.0561 214.131 97.9708 213.533 97.9708 212.872C97.9708 212.221 98.0561 211.629 98.2268 211.096C98.4081 210.563 98.6588 210.109 98.9788 209.736C99.3094 209.352 99.6988 209.059 100.147 208.856C100.605 208.653 101.117 208.552 101.683 208.552C102.237 208.552 102.733 208.653 103.171 208.856C103.608 209.059 103.981 209.341 104.291 209.704C104.6 210.056 104.835 210.477 104.995 210.968C105.165 211.459 105.251 211.997 105.251 212.584V213.192H99.3148V213.576C99.3148 213.928 99.3681 214.259 99.4748 214.568C99.5921 214.867 99.7521 215.128 99.9548 215.352C100.168 215.576 100.424 215.752 100.723 215.88C101.032 216.008 101.379 216.072 101.763 216.072C102.285 216.072 102.739 215.949 103.123 215.704C103.517 215.459 103.821 215.107 104.035 214.648L104.947 215.304C104.68 215.869 104.264 216.328 103.699 216.68C103.133 217.021 102.461 217.192 101.683 217.192ZM101.683 209.624C101.331 209.624 101.011 209.688 100.723 209.816C100.435 209.933 100.184 210.104 99.9708 210.328C99.7681 210.552 99.6081 210.819 99.4908 211.128C99.3734 211.427 99.3148 211.757 99.3148 212.12V212.232H103.875V212.056C103.875 211.32 103.672 210.733 103.267 210.296C102.872 209.848 102.344 209.624 101.683 209.624ZM107.36 208.744H112.576V209.864H108.64V217H107.36V208.744ZM117.136 217.192C116.582 217.192 116.075 217.091 115.616 216.888C115.158 216.685 114.763 216.397 114.432 216.024C114.112 215.64 113.862 215.187 113.68 214.664C113.499 214.131 113.408 213.533 113.408 212.872C113.408 212.221 113.499 211.629 113.68 211.096C113.862 210.563 114.112 210.109 114.432 209.736C114.763 209.352 115.158 209.059 115.616 208.856C116.075 208.653 116.582 208.552 117.136 208.552C117.691 208.552 118.192 208.653 118.64 208.856C119.099 209.059 119.494 209.352 119.824 209.736C120.155 210.109 120.411 210.563 120.592 211.096C120.774 211.629 120.864 212.221 120.864 212.872C120.864 213.533 120.774 214.131 120.592 214.664C120.411 215.187 120.155 215.64 119.824 216.024C119.494 216.397 119.099 216.685 118.64 216.888C118.192 217.091 117.691 217.192 117.136 217.192ZM117.136 216.056C117.83 216.056 118.395 215.843 118.832 215.416C119.27 214.989 119.488 214.339 119.488 213.464V212.28C119.488 211.405 119.27 210.755 118.832 210.328C118.395 209.901 117.83 209.688 117.136 209.688C116.443 209.688 115.878 209.901 115.44 210.328C115.003 210.755 114.784 211.405 114.784 212.28V213.464C114.784 214.339 115.003 214.989 115.44 215.416C115.878 215.843 116.443 216.056 117.136 216.056ZM121.706 215.88H122.65C122.981 215.347 123.247 214.68 123.45 213.88C123.653 213.08 123.754 212.163 123.754 211.128V208.744H129.338V215.88H130.714V219.24H129.546V217H122.874V219.24H121.706V215.88ZM128.058 215.88V209.864H124.97V211.192C124.97 212.291 124.874 213.229 124.682 214.008C124.501 214.776 124.282 215.4 124.026 215.88H128.058ZM132.485 208.744H133.765V212.184H137.893V208.744H139.173V217H137.893V213.304H133.765V217H132.485V208.744ZM141.155 215.88H142.067L142.595 214.664C142.713 214.387 142.857 214.179 143.027 214.04C143.198 213.891 143.39 213.8 143.603 213.768V213.704C142.867 213.64 142.313 213.4 141.939 212.984C141.566 212.568 141.379 212.008 141.379 211.304C141.379 210.504 141.619 209.88 142.099 209.432C142.579 208.973 143.241 208.744 144.083 208.744H147.731V217H146.451V213.832H144.307L143.443 215.864C143.251 216.312 143.038 216.616 142.803 216.776C142.579 216.925 142.323 217 142.035 217H141.155V215.88ZM146.451 212.744V209.864H144.275C143.795 209.864 143.422 209.955 143.155 210.136C142.889 210.317 142.755 210.621 142.755 211.048V211.576C142.755 212.003 142.889 212.307 143.155 212.488C143.422 212.659 143.795 212.744 144.275 212.744H146.451ZM151.27 217.192C150.928 217.192 150.678 217.107 150.518 216.936C150.368 216.765 150.294 216.541 150.294 216.264V216.056C150.294 215.779 150.368 215.555 150.518 215.384C150.678 215.213 150.928 215.128 151.27 215.128C151.611 215.128 151.856 215.213 152.006 215.384C152.166 215.555 152.246 215.779 152.246 216.056V216.264C152.246 216.541 152.166 216.765 152.006 216.936C151.856 217.107 151.611 217.192 151.27 217.192Z" fill="black"/>
<path d="M71 169.5H347C353.351 169.5 358.5 174.649 358.5 181V219C358.5 225.351 353.351 230.5 347 230.5H59.5V181C59.5 174.649 64.6487 169.5 71 169.5Z" stroke="#2B0FDB"/>
<path d="M305.48 135L304.36 131.704H299.848L298.728 135H297.368L301.272 123.832H302.984L306.888 135H305.48ZM302.136 125.08H302.056L300.168 130.52H304.024L302.136 125.08ZM308.61 126.744H309.89V128.088H309.954C310.167 127.565 310.477 127.181 310.882 126.936C311.298 126.68 311.794 126.552 312.37 126.552C312.882 126.552 313.346 126.653 313.762 126.856C314.178 127.059 314.53 127.347 314.818 127.72C315.117 128.093 315.341 128.547 315.49 129.08C315.65 129.613 315.73 130.211 315.73 130.872C315.73 131.533 315.65 132.131 315.49 132.664C315.341 133.197 315.117 133.651 314.818 134.024C314.53 134.397 314.178 134.685 313.762 134.888C313.346 135.091 312.882 135.192 312.37 135.192C311.25 135.192 310.445 134.68 309.954 133.656H309.89V138.2H308.61V126.744ZM312.018 134.04C312.743 134.04 313.314 133.816 313.73 133.368C314.146 132.909 314.354 132.312 314.354 131.576V130.168C314.354 129.432 314.146 128.84 313.73 128.392C313.314 127.933 312.743 127.704 312.018 127.704C311.73 127.704 311.453 127.747 311.186 127.832C310.93 127.907 310.706 128.013 310.514 128.152C310.322 128.291 310.167 128.461 310.05 128.664C309.943 128.856 309.89 129.064 309.89 129.288V132.36C309.89 132.627 309.943 132.867 310.05 133.08C310.167 133.283 310.322 133.459 310.514 133.608C310.706 133.747 310.93 133.853 311.186 133.928C311.453 134.003 311.73 134.04 312.018 134.04ZM317.891 126.744H319.171V128.088H319.235C319.449 127.565 319.758 127.181 320.163 126.936C320.579 126.68 321.075 126.552 321.651 126.552C322.163 126.552 322.627 126.653 323.043 126.856C323.459 127.059 323.811 127.347 324.099 127.72C324.398 128.093 324.622 128.547 324.771 129.08C324.931 129.613 325.011 130.211 325.011 130.872C325.011 131.533 324.931 132.131 324.771 132.664C324.622 133.197 324.398 133.651 324.099 134.024C323.811 134.397 323.459 134.685 323.043 134.888C322.627 135.091 322.163 135.192 321.651 135.192C320.531 135.192 319.726 134.68 319.235 133.656H319.171V138.2H317.891V126.744ZM321.299 134.04C322.025 134.04 322.595 133.816 323.011 133.368C323.427 132.909 323.635 132.312 323.635 131.576V130.168C323.635 129.432 323.427 128.84 323.011 128.392C322.595 127.933 322.025 127.704 321.299 127.704C321.011 127.704 320.734 127.747 320.467 127.832C320.211 127.907 319.987 128.013 319.795 128.152C319.603 128.291 319.449 128.461 319.331 128.664C319.225 128.856 319.171 129.064 319.171 129.288V132.36C319.171 132.627 319.225 132.867 319.331 133.08C319.449 133.283 319.603 133.459 319.795 133.608C319.987 133.747 320.211 133.853 320.467 133.928C320.734 134.003 321.011 134.04 321.299 134.04ZM328.533 135C328.085 135 327.743 134.877 327.509 134.632C327.285 134.376 327.173 134.056 327.173 133.672V123.16H328.453V133.88H329.669V135H328.533ZM334.636 135.192C334.071 135.192 333.559 135.091 333.1 134.888C332.652 134.685 332.263 134.397 331.932 134.024C331.612 133.64 331.361 133.187 331.18 132.664C331.009 132.131 330.924 131.533 330.924 130.872C330.924 130.221 331.009 129.629 331.18 129.096C331.361 128.563 331.612 128.109 331.932 127.736C332.263 127.352 332.652 127.059 333.1 126.856C333.559 126.653 334.071 126.552 334.636 126.552C335.191 126.552 335.687 126.653 336.124 126.856C336.561 127.059 336.935 127.341 337.244 127.704C337.553 128.056 337.788 128.477 337.948 128.968C338.119 129.459 338.204 129.997 338.204 130.584V131.192H332.268V131.576C332.268 131.928 332.321 132.259 332.428 132.568C332.545 132.867 332.705 133.128 332.908 133.352C333.121 133.576 333.377 133.752 333.676 133.88C333.985 134.008 334.332 134.072 334.716 134.072C335.239 134.072 335.692 133.949 336.076 133.704C336.471 133.459 336.775 133.107 336.988 132.648L337.9 133.304C337.633 133.869 337.217 134.328 336.652 134.68C336.087 135.021 335.415 135.192 334.636 135.192ZM334.636 127.624C334.284 127.624 333.964 127.688 333.676 127.816C333.388 127.933 333.137 128.104 332.924 128.328C332.721 128.552 332.561 128.819 332.444 129.128C332.327 129.427 332.268 129.757 332.268 130.12V130.232H336.828V130.056C336.828 129.32 336.625 128.733 336.22 128.296C335.825 127.848 335.297 127.624 334.636 127.624Z" fill="black"/>
<path d="M299 108.5H337C343.351 108.5 348.5 113.649 348.5 120V148.5H299C292.649 148.5 287.5 143.351 287.5 137V120C287.5 113.649 292.649 108.5 299 108.5Z" stroke="#2B0FDB"/>
<path d="M349 138V149H358L349 138Z" fill="#2B0FDB"/>
<circle cx="387" cy="132" r="16.575" fill="white" stroke="black" stroke-width="0.85"/>
<path d="M386 130L387.575 132.425V135.4" stroke="black" stroke-width="0.85"/>
<path d="M380.2 139.225C385.979 140.924 389.35 140.765 395.5 139.225" stroke="black" stroke-width="0.85"/>
<circle cx="380" cy="127" r="2" fill="black"/>
<circle cx="395" cy="127" r="2" fill="black"/>
</svg>
