<svg xmlns="http://www.w3.org/2000/svg" fill="none" viewBox="0 0 587 773">
  <path fill="#fff" stroke="#000" d="M.628 160.112a4.5 4.5 0 0 1 4.499-4.612h349.635a4.5 4.5 0 0 1 4.496 4.709l-12.536 270a4.5 4.5 0 0 1-4.495 4.291H11.877a4.5 4.5 0 0 1-4.499-4.388l-6.75-270Z"/>
  <circle cx="226.5" cy="337.5" r="18.5" fill="#000" />
  <path fill="#000" d="M40.76 221v-1.48h3.9v-11.24h-.14L41 211.56l-.98-1.06 3.7-3.46h2.62v12.48h3.6V221h-9.18ZM93.66 221H84.5v-1.72l4.56-4.2c.653-.6 1.2-1.233 1.64-1.9.44-.68.66-1.36.66-2.04v-.24c0-.773-.213-1.4-.64-1.88-.427-.48-1.073-.72-1.94-.72-.427 0-.8.06-1.12.18-.32.12-.6.287-.84.5-.227.213-.42.467-.58.76-.147.28-.267.587-.36.92l-1.5-.58a6.04 6.04 0 0 1 .54-1.2c.24-.4.533-.753.88-1.06a4.3 4.3 0 0 1 1.28-.74c.507-.187 1.1-.28 1.78-.28.68 0 1.287.1 1.82.3.533.2.98.48 1.34.84.36.36.633.787.82 1.28.2.493.3 1.04.3 1.64 0 .547-.08 1.053-.24 1.52a5.804 5.804 0 0 1-.62 1.34c-.267.413-.593.82-.98 1.22-.373.4-.78.8-1.22 1.2l-3.76 3.38h7.34V221ZM132.22 212.96c.947 0 1.653-.213 2.12-.64.48-.44.72-1 .72-1.68v-.14c0-.733-.233-1.28-.7-1.64-.453-.373-1.053-.56-1.8-.56-.72 0-1.307.16-1.76.48a3.56 3.56 0 0 0-1.12 1.26l-1.24-.96c.173-.28.38-.553.62-.82.253-.28.547-.527.88-.74.333-.213.72-.387 1.16-.52.44-.133.94-.2 1.5-.2.587 0 1.14.08 1.66.24.52.147.967.373 1.34.68a3 3 0 0 1 .9 1.1c.227.44.34.94.34 1.5 0 .453-.073.86-.22 1.22-.133.36-.32.673-.56.94-.24.267-.527.493-.86.68-.32.187-.667.327-1.04.42v.08c.373.08.733.213 1.08.4.36.173.673.407.94.7.28.28.5.627.66 1.04.173.4.26.86.26 1.38 0 .6-.113 1.153-.34 1.66-.227.493-.547.92-.96 1.28a4.62 4.62 0 0 1-1.5.82c-.587.2-1.233.3-1.94.3-.6 0-1.133-.067-1.6-.2a4.749 4.749 0 0 1-1.24-.54c-.36-.227-.68-.48-.96-.76a7.328 7.328 0 0 1-.72-.88l1.26-.96c.173.28.36.533.56.76a3.349 3.349 0 0 0 1.56.96c.32.08.693.12 1.12.12.987 0 1.733-.22 2.24-.66.507-.453.76-1.093.76-1.92V217c0-.827-.253-1.46-.76-1.9-.507-.453-1.253-.68-2.24-.68h-1.64v-1.46h1.52ZM178.5 221v-2.74h-6.74v-1.48l5.84-9.74h2.5v9.82h2.02v1.4h-2.02V221h-1.6Zm-5.16-4.14h5.16v-8.52h-.1l-5.06 8.52ZM224.96 208.52h-6.12l-.4 5.32h.14a4.46 4.46 0 0 1 1.12-1.12c.427-.28 1.007-.42 1.74-.42.6 0 1.153.1 1.66.3.507.2.947.487 1.32.86.373.36.66.807.86 1.34.213.533.32 1.14.32 1.82 0 .68-.107 1.307-.32 1.88a4.103 4.103 0 0 1-.94 1.46c-.4.4-.893.713-1.48.94-.573.227-1.227.34-1.96.34a5.546 5.546 0 0 1-1.56-.2 4.54 4.54 0 0 1-1.18-.54 5.186 5.186 0 0 1-.92-.76 8.769 8.769 0 0 1-.7-.88l1.26-.96c.173.28.353.533.54.76.2.227.413.42.64.58.24.16.513.287.82.38.307.08.673.12 1.1.12.96 0 1.687-.253 2.18-.76.493-.507.74-1.22.74-2.14v-.2c0-.92-.247-1.633-.74-2.14-.493-.507-1.22-.76-2.18-.76-.64 0-1.147.12-1.52.36-.36.227-.687.5-.98.82l-1.42-.2.5-7.68h7.48v1.48ZM265.02 221.24c-.72 0-1.373-.12-1.96-.36a4.367 4.367 0 0 1-1.48-1.06c-.4-.467-.707-1.033-.92-1.7-.213-.667-.32-1.413-.32-2.24 0-1.04.153-2.013.46-2.92a11.1 11.1 0 0 1 1.18-2.5 11.605 11.605 0 0 1 1.62-2c.587-.587 1.16-1.06 1.72-1.42h2.16a27.693 27.693 0 0 0-2 1.6c-.587.52-1.1 1.067-1.54 1.64a9.426 9.426 0 0 0-1.12 1.82c-.307.64-.553 1.367-.74 2.18l.1.04a4.516 4.516 0 0 1 1.28-1.42c.533-.387 1.227-.58 2.08-.58.6 0 1.153.1 1.66.3.507.2.94.487 1.3.86.36.373.64.827.84 1.36a4.76 4.76 0 0 1 .32 1.78c0 .68-.113 1.307-.34 1.88a4.103 4.103 0 0 1-.94 1.46c-.4.4-.887.713-1.46.94a5.119 5.119 0 0 1-1.9.34Zm-.02-1.46c.92 0 1.633-.253 2.14-.76.52-.507.78-1.233.78-2.18v-.16c0-.947-.26-1.673-.78-2.18-.507-.507-1.22-.76-2.14-.76-.92 0-1.64.253-2.16.76-.507.507-.76 1.233-.76 2.18v.16c0 .947.253 1.673.76 2.18.52.507 1.24.76 2.16.76ZM306.5 221l5.34-12.52h-5.96v2.6h-1.5v-4.04h9.16v1.48L308.3 221h-1.8ZM45 262.24c-.8 0-1.5-.1-2.1-.3-.6-.213-1.107-.5-1.52-.86-.4-.36-.707-.787-.92-1.28-.2-.493-.3-1.027-.3-1.6 0-.96.26-1.72.78-2.28.52-.56 1.2-.953 2.04-1.18v-.16c-.733-.253-1.32-.66-1.76-1.22-.427-.573-.64-1.26-.64-2.06 0-1.067.387-1.913 1.16-2.54.773-.64 1.86-.96 3.26-.96 1.4 0 2.487.32 3.26.96.773.627 1.16 1.473 1.16 2.54 0 .8-.22 1.487-.66 2.06-.427.56-1.007.967-1.74 1.22v.16c.84.227 1.52.62 2.04 1.18.52.56.78 1.32.78 2.28 0 .573-.107 1.107-.32 1.6-.2.493-.507.92-.92 1.28-.4.36-.9.647-1.5.86-.6.2-1.3.3-2.1.3Zm0-1.46c.973 0 1.727-.213 2.26-.64.533-.44.8-1.06.8-1.86v-.42c0-.8-.267-1.413-.8-1.84-.533-.44-1.287-.66-2.26-.66-.973 0-1.727.22-2.26.66-.533.427-.8 1.04-.8 1.84v.42c0 .8.267 1.42.8 1.86.533.427 1.287.64 2.26.64Zm0-6.82c.88 0 1.547-.187 2-.56.453-.373.68-.92.68-1.64v-.3c0-.72-.227-1.267-.68-1.64-.453-.373-1.12-.56-2-.56-.88 0-1.547.187-2 .56-.453.373-.68.92-.68 1.64v.3c0 .72.227 1.267.68 1.64.453.373 1.12.56 2 .56ZM93.66 253.16c0 1.04-.153 2.02-.46 2.94-.307.907-.707 1.74-1.2 2.5a11.962 11.962 0 0 1-1.6 2 11.05 11.05 0 0 1-1.72 1.4h-2.16a27.693 27.693 0 0 0 2-1.6c.587-.52 1.1-1.06 1.54-1.62.44-.573.813-1.18 1.12-1.82.307-.653.553-1.387.74-2.2l-.1-.04a4.645 4.645 0 0 1-1.3 1.44c-.52.373-1.207.56-2.06.56-.6 0-1.153-.1-1.66-.3-.507-.2-.94-.487-1.3-.86a4.202 4.202 0 0 1-.86-1.34c-.2-.533-.3-1.133-.3-1.8 0-.68.107-1.3.32-1.86.227-.573.54-1.06.94-1.46.413-.413.9-.733 1.46-.96.573-.227 1.213-.34 1.92-.34.72 0 1.367.127 1.94.38.587.24 1.08.593 1.48 1.06.413.453.727 1.013.94 1.68.213.667.32 1.413.32 2.24ZM89 255.3c.92 0 1.633-.253 2.14-.76.52-.507.78-1.233.78-2.18v-.16c0-.947-.26-1.673-.78-2.18-.507-.507-1.22-.76-2.14-.76-.92 0-1.64.253-2.16.76-.507.507-.76 1.233-.76 2.18v.16c0 .947.253 1.673.76 2.18.52.507 1.24.76 2.16.76ZM128.76 262v-1.48h3.9v-11.24h-.14l-3.52 3.28-.98-1.06 3.7-3.46h2.62v12.48h3.6V262h-9.18Zm16.232.24c-1.666 0-2.886-.633-3.66-1.9-.76-1.267-1.14-3.04-1.14-5.32 0-2.28.38-4.053 1.14-5.32.774-1.267 1.994-1.9 3.66-1.9 1.667 0 2.88.633 3.64 1.9.774 1.267 1.16 3.04 1.16 5.32 0 2.28-.386 4.053-1.16 5.32-.76 1.267-1.973 1.9-3.64 1.9Zm0-1.46c.547 0 1.014-.113 1.4-.34.387-.227.7-.547.94-.96.24-.413.414-.9.52-1.46.12-.56.18-1.18.18-1.86v-2.28c0-.68-.06-1.3-.18-1.86a4.585 4.585 0 0 0-.52-1.46 2.602 2.602 0 0 0-.94-.96c-.386-.227-.853-.34-1.4-.34-.546 0-1.013.113-1.4.34a2.61 2.61 0 0 0-.94.96c-.24.413-.42.9-.54 1.46-.106.56-.16 1.18-.16 1.86v2.28c0 .68.054 1.3.16 1.86.12.56.3 1.047.54 1.46.24.413.554.733.94.96.387.227.854.34 1.4.34ZM172.76 262v-1.48h3.9v-11.24h-.14l-3.52 3.28-.98-1.06 3.7-3.46h2.62v12.48h3.6V262h-9.18Zm11.992 0v-1.48h3.9v-11.24h-.14l-3.52 3.28-.98-1.06 3.7-3.46h2.62v12.48h3.6V262h-9.18ZM216.76 262v-1.48h3.9v-11.24h-.14l-3.52 3.28-.98-1.06 3.7-3.46h2.62v12.48h3.6V262h-9.18Zm20.892 0h-9.16v-1.72l4.56-4.2c.654-.6 1.2-1.233 1.64-1.9.44-.68.66-1.36.66-2.04v-.24c0-.773-.213-1.4-.64-1.88-.426-.48-1.073-.72-1.94-.72-.426 0-.8.06-1.12.18-.32.12-.6.287-.84.5-.226.213-.42.467-.58.76-.146.28-.266.587-.36.92l-1.5-.58c.134-.413.314-.813.54-1.2.24-.4.534-.753.88-1.06.36-.307.787-.553 1.28-.74.507-.187 1.1-.28 1.78-.28.68 0 1.287.1 1.82.3.534.2.98.48 1.34.84.36.36.634.787.82 1.28.2.493.3 1.04.3 1.64 0 .547-.08 1.053-.24 1.52a5.763 5.763 0 0 1-.62 1.34c-.266.413-.593.82-.98 1.22-.373.4-.78.8-1.22 1.2l-3.76 3.38h7.34V262ZM260.76 262v-1.48h3.9v-11.24h-.14l-3.52 3.28-.98-1.06 3.7-3.46h2.62v12.48h3.6V262h-9.18Zm15.452-8.04c.947 0 1.654-.213 2.12-.64.48-.44.72-1 .72-1.68v-.14c0-.733-.233-1.28-.7-1.64-.453-.373-1.053-.56-1.8-.56-.72 0-1.306.16-1.76.48a3.57 3.57 0 0 0-1.12 1.26l-1.24-.96c.174-.28.38-.553.62-.82.254-.28.547-.527.88-.74.334-.213.72-.387 1.16-.52.44-.133.94-.2 1.5-.2.587 0 1.14.08 1.66.24.52.147.967.373 1.34.68a3 3 0 0 1 .9 1.1c.227.44.34.94.34 1.5 0 .453-.073.86-.22 1.22-.133.36-.32.673-.56.94-.24.267-.526.493-.86.68-.32.187-.666.327-1.04.42v.08c.374.08.734.213 1.08.4.36.173.674.407.94.7.28.28.5.627.66 1.04.174.4.26.86.26 1.38 0 .6-.113 1.153-.34 1.66a3.75 3.75 0 0 1-.96 1.28 4.62 4.62 0 0 1-1.5.82c-.586.2-1.233.3-1.94.3-.6 0-1.133-.067-1.6-.2a4.764 4.764 0 0 1-1.24-.54c-.36-.227-.68-.48-.96-.76a7.525 7.525 0 0 1-.72-.88l1.26-.96c.174.28.36.533.56.76a3.364 3.364 0 0 0 1.56.96c.32.08.694.12 1.12.12.987 0 1.734-.22 2.24-.66.507-.453.76-1.093.76-1.92V258c0-.827-.253-1.46-.76-1.9-.506-.453-1.253-.68-2.24-.68h-1.64v-1.46h1.52ZM304.76 262v-1.48h3.9v-11.24h-.14l-3.52 3.28-.98-1.06 3.7-3.46h2.62v12.48h3.6V262h-9.18Zm17.732 0v-2.74h-6.74v-1.48l5.84-9.74h2.5v9.82h2.02v1.4h-2.02V262h-1.6Zm-5.16-4.14h5.16v-8.52h-.1l-5.06 8.52ZM40.76 303v-1.48h3.9v-11.24h-.14L41 293.56l-.98-1.06 3.7-3.46h2.62v12.48h3.6V303h-9.18Zm20.192-12.48h-6.12l-.4 5.32h.14a4.46 4.46 0 0 1 1.12-1.12c.427-.28 1.007-.42 1.74-.42.6 0 1.154.1 1.66.3.507.2.947.487 1.32.86.373.36.66.807.86 1.34.214.533.32 1.14.32 1.82a5.35 5.35 0 0 1-.32 1.88 4.103 4.103 0 0 1-.94 1.46c-.4.4-.893.713-1.48.94-.573.227-1.226.34-1.96.34a5.55 5.55 0 0 1-1.56-.2 4.536 4.536 0 0 1-1.18-.54 5.186 5.186 0 0 1-.92-.76 8.769 8.769 0 0 1-.7-.88l1.26-.96c.173.28.353.533.54.76.2.227.413.42.64.58.24.16.514.287.82.38.307.08.673.12 1.1.12.96 0 1.687-.253 2.18-.76.493-.507.74-1.22.74-2.14v-.2c0-.92-.246-1.633-.74-2.14-.493-.507-1.22-.76-2.18-.76-.64 0-1.147.12-1.52.36-.36.227-.687.5-.98.82l-1.42-.2.5-7.68h7.48v1.48ZM84.76 303v-1.48h3.9v-11.24h-.14L85 293.56l-.98-1.06 3.7-3.46h2.62v12.48h3.6V303h-9.18Zm16.252.24c-.72 0-1.373-.12-1.96-.36a4.367 4.367 0 0 1-1.48-1.06c-.4-.467-.707-1.033-.92-1.7-.213-.667-.32-1.413-.32-2.24 0-1.04.154-2.013.46-2.92.307-.92.7-1.753 1.18-2.5a11.633 11.633 0 0 1 1.62-2c.587-.587 1.16-1.06 1.72-1.42h2.16a27.914 27.914 0 0 0-2 1.6 11.83 11.83 0 0 0-1.54 1.64 9.412 9.412 0 0 0-1.12 1.82c-.306.64-.553 1.367-.74 2.18l.1.04a4.52 4.52 0 0 1 1.28-1.42c.534-.387 1.227-.58 2.08-.58.6 0 1.154.1 1.66.3.507.2.94.487 1.3.86.36.373.64.827.84 1.36a4.74 4.74 0 0 1 .32 1.78c0 .68-.113 1.307-.34 1.88a4.09 4.09 0 0 1-.94 1.46c-.4.4-.886.713-1.46.94a5.115 5.115 0 0 1-1.9.34Zm-.02-1.46c.92 0 1.634-.253 2.14-.76.52-.507.78-1.233.78-2.18v-.16c0-.947-.26-1.673-.78-2.18-.506-.507-1.22-.76-2.14-.76-.92 0-1.64.253-2.16.76-.506.507-.76 1.233-.76 2.18v.16c0 .947.254 1.673.76 2.18.52.507 1.24.76 2.16.76ZM128.76 303v-1.48h3.9v-11.24h-.14l-3.52 3.28-.98-1.06 3.7-3.46h2.62v12.48h3.6V303h-9.18Zm13.732 0 5.34-12.52h-5.96v2.6h-1.5v-4.04h9.16v1.48l-5.24 12.48h-1.8ZM172.76 303v-1.48h3.9v-11.24h-.14l-3.52 3.28-.98-1.06 3.7-3.46h2.62v12.48h3.6V303h-9.18Zm16.232.24c-.8 0-1.5-.1-2.1-.3-.6-.213-1.106-.5-1.52-.86-.4-.36-.706-.787-.92-1.28-.2-.493-.3-1.027-.3-1.6 0-.96.26-1.72.78-2.28.52-.56 1.2-.953 2.04-1.18v-.16c-.733-.253-1.32-.66-1.76-1.22-.426-.573-.64-1.26-.64-2.06 0-1.067.387-1.913 1.16-2.54.774-.64 1.86-.96 3.26-.96 1.4 0 2.487.32 3.26.96.774.627 1.16 1.473 1.16 2.54 0 .8-.22 1.487-.66 2.06-.426.56-1.006.967-1.74 1.22v.16c.84.227 1.52.62 2.04 1.18.52.56.78 1.32.78 2.28 0 .573-.106 1.107-.32 1.6-.2.493-.506.92-.92 1.28-.4.36-.9.647-1.5.86-.6.2-1.3.3-2.1.3Zm0-1.46c.974 0 1.727-.213 2.26-.64.534-.44.8-1.06.8-1.86v-.42c0-.8-.266-1.413-.8-1.84-.533-.44-1.286-.66-2.26-.66-.973 0-1.726.22-2.26.66-.533.427-.8 1.04-.8 1.84v.42c0 .8.267 1.42.8 1.86.534.427 1.287.64 2.26.64Zm0-6.82c.88 0 1.547-.187 2-.56.454-.373.68-.92.68-1.64v-.3c0-.72-.226-1.267-.68-1.64-.453-.373-1.12-.56-2-.56-.88 0-1.546.187-2 .56-.453.373-.68.92-.68 1.64v.3c0 .72.227 1.267.68 1.64.454.373 1.12.56 2 .56ZM216.76 303v-1.48h3.9v-11.24h-.14l-3.52 3.28-.98-1.06 3.7-3.46h2.62v12.48h3.6V303h-9.18Zm20.892-8.84c0 1.04-.153 2.02-.46 2.94-.306.907-.706 1.74-1.2 2.5a11.947 11.947 0 0 1-1.6 2c-.586.573-1.16 1.04-1.72 1.4h-2.16a27.475 27.475 0 0 0 2-1.6c.587-.52 1.1-1.06 1.54-1.62.44-.573.814-1.18 1.12-1.82.307-.653.554-1.387.74-2.2l-.1-.04a4.633 4.633 0 0 1-1.3 1.44c-.52.373-1.206.56-2.06.56-.6 0-1.153-.1-1.66-.3-.506-.2-.94-.487-1.3-.86a4.214 4.214 0 0 1-.86-1.34c-.2-.533-.3-1.133-.3-1.8 0-.68.107-1.3.32-1.86.227-.573.54-1.06.94-1.46.414-.413.9-.733 1.46-.96.574-.227 1.214-.34 1.92-.34.72 0 1.367.127 1.94.38a3.82 3.82 0 0 1 1.48 1.06c.414.453.727 1.013.94 1.68.214.667.32 1.413.32 2.24Zm-4.66 2.14c.92 0 1.634-.253 2.14-.76.52-.507.78-1.233.78-2.18v-.16c0-.947-.26-1.673-.78-2.18-.506-.507-1.22-.76-2.14-.76-.92 0-1.64.253-2.16.76-.506.507-.76 1.233-.76 2.18v.16c0 .947.254 1.673.76 2.18.52.507 1.24.76 2.16.76ZM269.66 303h-9.16v-1.72l4.56-4.2c.653-.6 1.2-1.233 1.64-1.9.44-.68.66-1.36.66-2.04v-.24c0-.773-.213-1.4-.64-1.88-.427-.48-1.073-.72-1.94-.72-.427 0-.8.06-1.12.18-.32.12-.6.287-.84.5-.227.213-.42.467-.58.76-.147.28-.267.587-.36.92l-1.5-.58c.133-.413.313-.813.54-1.2.24-.4.533-.753.88-1.06.36-.307.787-.553 1.28-.74.507-.187 1.1-.28 1.78-.28.68 0 1.287.1 1.82.3.533.2.98.48 1.34.84.36.36.633.787.82 1.28.2.493.3 1.04.3 1.64 0 .547-.08 1.053-.24 1.52a5.804 5.804 0 0 1-.62 1.34c-.267.413-.593.82-.98 1.22-.373.4-.78.8-1.22 1.2l-3.76 3.38h7.34V303Zm7.332.24c-1.666 0-2.886-.633-3.66-1.9-.76-1.267-1.14-3.04-1.14-5.32 0-2.28.38-4.053 1.14-5.32.774-1.267 1.994-1.9 3.66-1.9 1.667 0 2.88.633 3.64 1.9.774 1.267 1.16 3.04 1.16 5.32 0 2.28-.386 4.053-1.16 5.32-.76 1.267-1.973 1.9-3.64 1.9Zm0-1.46c.547 0 1.014-.113 1.4-.34.387-.227.7-.547.94-.96.24-.413.414-.9.52-1.46.12-.56.18-1.18.18-1.86v-2.28c0-.68-.06-1.3-.18-1.86a4.585 4.585 0 0 0-.52-1.46 2.602 2.602 0 0 0-.94-.96c-.386-.227-.853-.34-1.4-.34-.546 0-1.013.113-1.4.34a2.61 2.61 0 0 0-.94.96c-.24.413-.42.9-.54 1.46-.106.56-.16 1.18-.16 1.86v2.28c0 .68.054 1.3.16 1.86.12.56.3 1.047.54 1.46.24.413.554.733.94.96.387.227.854.34 1.4.34ZM313.66 303h-9.16v-1.72l4.56-4.2c.653-.6 1.2-1.233 1.64-1.9.44-.68.66-1.36.66-2.04v-.24c0-.773-.213-1.4-.64-1.88-.427-.48-1.073-.72-1.94-.72-.427 0-.8.06-1.12.18-.32.12-.6.287-.84.5-.227.213-.42.467-.58.76-.147.28-.267.587-.36.92l-1.5-.58c.133-.413.313-.813.54-1.2.24-.4.533-.753.88-1.06.36-.307.787-.553 1.28-.74.507-.187 1.1-.28 1.78-.28.68 0 1.287.1 1.82.3.533.2.98.48 1.34.84.36.36.633.787.82 1.28.2.493.3 1.04.3 1.64 0 .547-.08 1.053-.24 1.52a5.804 5.804 0 0 1-.62 1.34c-.267.413-.593.82-.98 1.22-.373.4-.78.8-1.22 1.2l-3.76 3.38h7.34V303Zm3.092 0v-1.48h3.9v-11.24h-.14l-3.52 3.28-.98-1.06 3.7-3.46h2.62v12.48h3.6V303h-9.18ZM49.66 344H40.5v-1.72l4.56-4.2c.653-.6 1.2-1.233 1.64-1.9.44-.68.66-1.36.66-2.04v-.24c0-.773-.213-1.4-.64-1.88-.427-.48-1.073-.72-1.94-.72-.427 0-.8.06-1.12.18-.32.12-.6.287-.84.5-.227.213-.42.467-.58.76-.147.28-.267.587-.36.92l-1.5-.58a6.04 6.04 0 0 1 .54-1.2c.24-.4.533-.753.88-1.06a4.3 4.3 0 0 1 1.28-.74c.507-.187 1.1-.28 1.78-.28.68 0 1.287.1 1.82.3.533.2.98.48 1.34.84.36.36.633.787.82 1.28.2.493.3 1.04.3 1.64 0 .547-.08 1.053-.24 1.52a5.804 5.804 0 0 1-.62 1.34c-.267.413-.593.82-.98 1.22-.373.4-.78.8-1.22 1.2l-3.76 3.38h7.34V344Zm11.992 0h-9.16v-1.72l4.56-4.2c.654-.6 1.2-1.233 1.64-1.9.44-.68.66-1.36.66-2.04v-.24c0-.773-.213-1.4-.64-1.88-.427-.48-1.073-.72-1.94-.72-.426 0-.8.06-1.12.18-.32.12-.6.287-.84.5-.226.213-.42.467-.58.76-.146.28-.267.587-.36.92l-1.5-.58a6.04 6.04 0 0 1 .54-1.2c.24-.4.534-.753.88-1.06a4.3 4.3 0 0 1 1.28-.74c.507-.187 1.1-.28 1.78-.28.68 0 1.287.1 1.82.3.534.2.98.48 1.34.84.36.36.633.787.82 1.28.2.493.3 1.04.3 1.64 0 .547-.08 1.053-.24 1.52a5.804 5.804 0 0 1-.62 1.34c-.267.413-.593.82-.98 1.22-.373.4-.78.8-1.22 1.2l-3.76 3.38h7.34V344ZM93.66 344H84.5v-1.72l4.56-4.2c.653-.6 1.2-1.233 1.64-1.9.44-.68.66-1.36.66-2.04v-.24c0-.773-.213-1.4-.64-1.88-.427-.48-1.073-.72-1.94-.72-.427 0-.8.06-1.12.18-.32.12-.6.287-.84.5-.227.213-.42.467-.58.76-.147.28-.267.587-.36.92l-1.5-.58a6.04 6.04 0 0 1 .54-1.2c.24-.4.533-.753.88-1.06a4.3 4.3 0 0 1 1.28-.74c.507-.187 1.1-.28 1.78-.28.68 0 1.287.1 1.82.3.533.2.98.48 1.34.84.36.36.633.787.82 1.28.2.493.3 1.04.3 1.64 0 .547-.08 1.053-.24 1.52a5.804 5.804 0 0 1-.62 1.34c-.267.413-.593.82-.98 1.22-.373.4-.78.8-1.22 1.2l-3.76 3.38h7.34V344Zm6.552-8.04c.947 0 1.654-.213 2.12-.64.48-.44.72-1 .72-1.68v-.14c0-.733-.233-1.28-.7-1.64-.453-.373-1.053-.56-1.8-.56-.72 0-1.306.16-1.76.48a3.56 3.56 0 0 0-1.12 1.26l-1.24-.96c.174-.28.38-.553.62-.82.253-.28.547-.527.88-.74.334-.213.72-.387 1.16-.52.44-.133.94-.2 1.5-.2.587 0 1.14.08 1.66.24.52.147.967.373 1.34.68a3 3 0 0 1 .9 1.1c.227.44.34.94.34 1.5 0 .453-.073.86-.22 1.22-.133.36-.32.673-.56.94-.24.267-.526.493-.86.68-.32.187-.666.327-1.04.42v.08c.374.08.734.213 1.08.4.36.173.674.407.94.7.28.28.5.627.66 1.04.174.4.26.86.26 1.38 0 .6-.113 1.153-.34 1.66a3.75 3.75 0 0 1-.96 1.28 4.62 4.62 0 0 1-1.5.82c-.586.2-1.233.3-1.94.3-.6 0-1.133-.067-1.6-.2a4.753 4.753 0 0 1-1.24-.54c-.36-.227-.68-.48-.96-.76a7.386 7.386 0 0 1-.72-.88l1.26-.96c.174.28.36.533.56.76a3.353 3.353 0 0 0 1.56.96c.32.08.694.12 1.12.12.987 0 1.734-.22 2.24-.66.507-.453.76-1.093.76-1.92V340c0-.827-.253-1.46-.76-1.9-.506-.453-1.253-.68-2.24-.68h-1.64v-1.46h1.52ZM137.66 344h-9.16v-1.72l4.56-4.2c.653-.6 1.2-1.233 1.64-1.9.44-.68.66-1.36.66-2.04v-.24c0-.773-.213-1.4-.64-1.88-.427-.48-1.073-.72-1.94-.72-.427 0-.8.06-1.12.18-.32.12-.6.287-.84.5-.227.213-.42.467-.58.76-.147.28-.267.587-.36.92l-1.5-.58c.133-.413.313-.813.54-1.2.24-.4.533-.753.88-1.06.36-.307.787-.553 1.28-.74.507-.187 1.1-.28 1.78-.28.68 0 1.287.1 1.82.3.533.2.98.48 1.34.84.36.36.633.787.82 1.28.2.493.3 1.04.3 1.64 0 .547-.08 1.053-.24 1.52a5.804 5.804 0 0 1-.62 1.34c-.267.413-.593.82-.98 1.22-.373.4-.78.8-1.22 1.2l-3.76 3.38h7.34V344Zm8.832 0v-2.74h-6.74v-1.48l5.84-9.74h2.5v9.82h2.02v1.4h-2.02V344h-1.6Zm-5.16-4.14h5.16v-8.52h-.1l-5.06 8.52ZM181.66 344h-9.16v-1.72l4.56-4.2c.653-.6 1.2-1.233 1.64-1.9.44-.68.66-1.36.66-2.04v-.24c0-.773-.213-1.4-.64-1.88-.427-.48-1.073-.72-1.94-.72-.427 0-.8.06-1.12.18-.32.12-.6.287-.84.5-.227.213-.42.467-.58.76-.147.28-.267.587-.36.92l-1.5-.58c.133-.413.313-.813.54-1.2.24-.4.533-.753.88-1.06.36-.307.787-.553 1.28-.74.507-.187 1.1-.28 1.78-.28.68 0 1.287.1 1.82.3.533.2.98.48 1.34.84.36.36.633.787.82 1.28.2.493.3 1.04.3 1.64 0 .547-.08 1.053-.24 1.52a5.804 5.804 0 0 1-.62 1.34c-.267.413-.593.82-.98 1.22-.373.4-.78.8-1.22 1.2l-3.76 3.38h7.34V344Zm11.292-12.48h-6.12l-.4 5.32h.14c.334-.467.707-.84 1.12-1.12.427-.28 1.007-.42 1.74-.42.6 0 1.154.1 1.66.3.507.2.947.487 1.32.86.374.36.66.807.86 1.34.214.533.32 1.14.32 1.82 0 .68-.106 1.307-.32 1.88a4.09 4.09 0 0 1-.94 1.46c-.4.4-.893.713-1.48.94-.573.227-1.226.34-1.96.34a5.556 5.556 0 0 1-1.56-.2 4.54 4.54 0 0 1-1.18-.54 5.222 5.222 0 0 1-.92-.76 8.914 8.914 0 0 1-.7-.88l1.26-.96c.174.28.354.533.54.76.2.227.414.42.64.58.24.16.514.287.82.38.307.08.674.12 1.1.12.96 0 1.687-.253 2.18-.76.494-.507.74-1.22.74-2.14v-.2c0-.92-.246-1.633-.74-2.14-.493-.507-1.22-.76-2.18-.76-.64 0-1.146.12-1.52.36-.36.227-.686.5-.98.82l-1.42-.2.5-7.68h7.48v1.48Z"/>
  <path fill="#fff" d="M225.66 344h-9.16v-1.72l4.56-4.2c.653-.6 1.2-1.233 1.64-1.9.44-.68.66-1.36.66-2.04v-.24c0-.773-.213-1.4-.64-1.88-.427-.48-1.073-.72-1.94-.72-.427 0-.8.06-1.12.18-.32.12-.6.287-.84.5-.227.213-.42.467-.58.76-.147.28-.267.587-.36.92l-1.5-.58c.133-.413.313-.813.54-1.2.24-.4.533-.753.88-1.06.36-.307.787-.553 1.28-.74.507-.187 1.1-.28 1.78-.28.68 0 1.287.1 1.82.3.533.2.98.48 1.34.84.36.36.633.787.82 1.28.2.493.3 1.04.3 1.64 0 .547-.08 1.053-.24 1.52a5.804 5.804 0 0 1-.62 1.34c-.267.413-.593.82-.98 1.22-.373.4-.78.8-1.22 1.2l-3.76 3.38h7.34V344Zm7.352.24c-.72 0-1.373-.12-1.96-.36a4.377 4.377 0 0 1-1.48-1.06c-.4-.467-.706-1.033-.92-1.7-.213-.667-.32-1.413-.32-2.24 0-1.04.154-2.013.46-2.92a11.1 11.1 0 0 1 1.18-2.5 11.7 11.7 0 0 1 1.62-2c.587-.587 1.16-1.06 1.72-1.42h2.16a27.914 27.914 0 0 0-2 1.6c-.586.52-1.1 1.067-1.54 1.64a9.426 9.426 0 0 0-1.12 1.82c-.306.64-.553 1.367-.74 2.18l.1.04a4.528 4.528 0 0 1 1.28-1.42c.534-.387 1.227-.58 2.08-.58.6 0 1.154.1 1.66.3.507.2.94.487 1.3.86.36.373.64.827.84 1.36a4.74 4.74 0 0 1 .32 1.78c0 .68-.113 1.307-.34 1.88a4.09 4.09 0 0 1-.94 1.46c-.4.4-.886.713-1.46.94a5.115 5.115 0 0 1-1.9.34Zm-.02-1.46c.92 0 1.634-.253 2.14-.76.52-.507.78-1.233.78-2.18v-.16c0-.947-.26-1.673-.78-2.18-.506-.507-1.22-.76-2.14-.76-.92 0-1.64.253-2.16.76-.506.507-.76 1.233-.76 2.18v.16c0 .947.254 1.673.76 2.18.52.507 1.24.76 2.16.76Z"/>
  <path fill="#000" d="M269.66 344h-9.16v-1.72l4.56-4.2c.653-.6 1.2-1.233 1.64-1.9.44-.68.66-1.36.66-2.04v-.24c0-.773-.213-1.4-.64-1.88-.427-.48-1.073-.72-1.94-.72-.427 0-.8.06-1.12.18-.32.12-.6.287-.84.5-.227.213-.42.467-.58.76-.147.28-.267.587-.36.92l-1.5-.58c.133-.413.313-.813.54-1.2.24-.4.533-.753.88-1.06.36-.307.787-.553 1.28-.74.507-.187 1.1-.28 1.78-.28.68 0 1.287.1 1.82.3.533.2.98.48 1.34.84.36.36.633.787.82 1.28.2.493.3 1.04.3 1.64 0 .547-.08 1.053-.24 1.52a5.804 5.804 0 0 1-.62 1.34c-.267.413-.593.82-.98 1.22-.373.4-.78.8-1.22 1.2l-3.76 3.38h7.34V344Zm4.832 0 5.34-12.52h-5.96v2.6h-1.5v-4.04h9.16v1.48l-5.24 12.48h-1.8ZM313.66 344h-9.16v-1.72l4.56-4.2c.653-.6 1.2-1.233 1.64-1.9.44-.68.66-1.36.66-2.04v-.24c0-.773-.213-1.4-.64-1.88-.427-.48-1.073-.72-1.94-.72-.427 0-.8.06-1.12.18-.32.12-.6.287-.84.5-.227.213-.42.467-.58.76-.147.28-.267.587-.36.92l-1.5-.58c.133-.413.313-.813.54-1.2.24-.4.533-.753.88-1.06.36-.307.787-.553 1.28-.74.507-.187 1.1-.28 1.78-.28.68 0 1.287.1 1.82.3.533.2.98.48 1.34.84.36.36.633.787.82 1.28.2.493.3 1.04.3 1.64 0 .547-.08 1.053-.24 1.52a5.804 5.804 0 0 1-.62 1.34c-.267.413-.593.82-.98 1.22-.373.4-.78.8-1.22 1.2l-3.76 3.38h7.34V344Zm7.332.24c-.8 0-1.5-.1-2.1-.3-.6-.213-1.106-.5-1.52-.86-.4-.36-.706-.787-.92-1.28-.2-.493-.3-1.027-.3-1.6 0-.96.26-1.72.78-2.28.52-.56 1.2-.953 2.04-1.18v-.16c-.733-.253-1.32-.66-1.76-1.22-.426-.573-.64-1.26-.64-2.06 0-1.067.387-1.913 1.16-2.54.774-.64 1.86-.96 3.26-.96 1.4 0 2.487.32 3.26.96.774.627 1.16 1.473 1.16 2.54 0 .8-.22 1.487-.66 2.06-.426.56-1.006.967-1.74 1.22v.16c.84.227 1.52.62 2.04 1.18.52.56.78 1.32.78 2.28 0 .573-.106 1.107-.32 1.6-.2.493-.506.92-.92 1.28-.4.36-.9.647-1.5.86-.6.2-1.3.3-2.1.3Zm0-1.46c.974 0 1.727-.213 2.26-.64.534-.44.8-1.06.8-1.86v-.42c0-.8-.266-1.413-.8-1.84-.533-.44-1.286-.66-2.26-.66-.973 0-1.726.22-2.26.66-.533.427-.8 1.04-.8 1.84v.42c0 .8.267 1.42.8 1.86.534.427 1.287.64 2.26.64Zm0-6.82c.88 0 1.547-.187 2-.56.454-.373.68-.92.68-1.64v-.3c0-.72-.226-1.267-.68-1.64-.453-.373-1.12-.56-2-.56-.88 0-1.546.187-2 .56-.453.373-.68.92-.68 1.64v.3c0 .72.227 1.267.68 1.64.454.373 1.12.56 2 .56ZM49.66 385H40.5v-1.72l4.56-4.2c.653-.6 1.2-1.233 1.64-1.9.44-.68.66-1.36.66-2.04v-.24c0-.773-.213-1.4-.64-1.88-.427-.48-1.073-.72-1.94-.72-.427 0-.8.06-1.12.18-.32.12-.6.287-.84.5-.227.213-.42.467-.58.76-.147.28-.267.587-.36.92l-1.5-.58a6.04 6.04 0 0 1 .54-1.2c.24-.4.533-.753.88-1.06a4.3 4.3 0 0 1 1.28-.74c.507-.187 1.1-.28 1.78-.28.68 0 1.287.1 1.82.3.533.2.98.48 1.34.84.36.36.633.787.82 1.28.2.493.3 1.04.3 1.64 0 .547-.08 1.053-.24 1.52a5.804 5.804 0 0 1-.62 1.34c-.267.413-.593.82-.98 1.22-.373.4-.78.8-1.22 1.2l-3.76 3.38h7.34V385Zm11.992-8.84c0 1.04-.153 2.02-.46 2.94-.306.907-.706 1.74-1.2 2.5a11.962 11.962 0 0 1-1.6 2 11.05 11.05 0 0 1-1.72 1.4h-2.16a27.693 27.693 0 0 0 2-1.6c.587-.52 1.1-1.06 1.54-1.62.44-.573.813-1.18 1.12-1.82.307-.653.553-1.387.74-2.2l-.1-.04a4.645 4.645 0 0 1-1.3 1.44c-.52.373-1.206.56-2.06.56-.6 0-1.153-.1-1.66-.3-.507-.2-.94-.487-1.3-.86a4.202 4.202 0 0 1-.86-1.34c-.2-.533-.3-1.133-.3-1.8 0-.68.107-1.3.32-1.86.227-.573.54-1.06.94-1.46.413-.413.9-.733 1.46-.96.574-.227 1.214-.34 1.92-.34.72 0 1.367.127 1.94.38.587.24 1.08.593 1.48 1.06.413.453.727 1.013.94 1.68.213.667.32 1.413.32 2.24Zm-4.66 2.14c.92 0 1.634-.253 2.14-.76.52-.507.78-1.233.78-2.18v-.16c0-.947-.26-1.673-.78-2.18-.506-.507-1.22-.76-2.14-.76-.92 0-1.64.253-2.16.76-.507.507-.76 1.233-.76 2.18v.16c0 .947.253 1.673.76 2.18.52.507 1.24.76 2.16.76ZM88.22 376.96c.947 0 1.653-.213 2.12-.64.48-.44.72-1 .72-1.68v-.14c0-.733-.233-1.28-.7-1.64-.453-.373-1.053-.56-1.8-.56-.72 0-1.307.16-1.76.48a3.56 3.56 0 0 0-1.12 1.26l-1.24-.96c.173-.28.38-.553.62-.82.253-.28.547-.527.88-.74.333-.213.72-.387 1.16-.52.44-.133.94-.2 1.5-.2.587 0 1.14.08 1.66.24.52.147.967.373 1.34.68.387.293.687.66.9 1.1.227.44.34.94.34 1.5 0 .453-.073.86-.22 1.22a2.89 2.89 0 0 1-.56.94c-.24.267-.527.493-.86.68-.32.187-.667.327-1.04.42v.08c.373.08.733.213 1.08.4.36.173.673.407.94.7.28.28.5.627.66 1.04.173.4.26.86.26 1.38 0 .6-.113 1.153-.34 1.66-.227.493-.547.92-.96 1.28-.413.347-.913.62-1.5.82-.587.2-1.233.3-1.94.3-.6 0-1.133-.067-1.6-.2a4.753 4.753 0 0 1-1.24-.54c-.36-.227-.68-.48-.96-.76a7.386 7.386 0 0 1-.72-.88l1.26-.96c.173.28.36.533.56.76a3.353 3.353 0 0 0 1.56.96c.32.08.693.12 1.12.12.987 0 1.733-.22 2.24-.66.507-.453.76-1.093.76-1.92V381c0-.827-.253-1.46-.76-1.9-.507-.453-1.253-.68-2.24-.68H86.7v-1.46h1.52Zm12.772 8.28c-1.666 0-2.886-.633-3.66-1.9-.76-1.267-1.14-3.04-1.14-5.32 0-2.28.38-4.053 1.14-5.32.774-1.267 1.994-1.9 3.66-1.9 1.667 0 2.88.633 3.64 1.9.774 1.267 1.16 3.04 1.16 5.32 0 2.28-.386 4.053-1.16 5.32-.76 1.267-1.973 1.9-3.64 1.9Zm0-1.46c.547 0 1.014-.113 1.4-.34.387-.227.7-.547.94-.96.24-.413.414-.9.52-1.46.12-.56.18-1.18.18-1.86v-2.28c0-.68-.06-1.3-.18-1.86a4.585 4.585 0 0 0-.52-1.46 2.602 2.602 0 0 0-.94-.96c-.386-.227-.853-.34-1.4-.34-.546 0-1.013.113-1.4.34-.386.227-.7.547-.94.96-.24.413-.42.9-.54 1.46-.106.56-.16 1.18-.16 1.86v2.28c0 .68.053 1.3.16 1.86.12.56.3 1.047.54 1.46.24.413.553.733.94.96.387.227.854.34 1.4.34ZM132.22 376.96c.947 0 1.653-.213 2.12-.64.48-.44.72-1 .72-1.68v-.14c0-.733-.233-1.28-.7-1.64-.453-.373-1.053-.56-1.8-.56-.72 0-1.307.16-1.76.48a3.56 3.56 0 0 0-1.12 1.26l-1.24-.96c.173-.28.38-.553.62-.82.253-.28.547-.527.88-.74.333-.213.72-.387 1.16-.52.44-.133.94-.2 1.5-.2.587 0 1.14.08 1.66.24.52.147.967.373 1.34.68a3 3 0 0 1 .9 1.1c.227.44.34.94.34 1.5 0 .453-.073.86-.22 1.22-.133.36-.32.673-.56.94-.24.267-.527.493-.86.68-.32.187-.667.327-1.04.42v.08c.373.08.733.213 1.08.4.36.173.673.407.94.7.28.28.5.627.66 1.04.173.4.26.86.26 1.38 0 .6-.113 1.153-.34 1.66-.227.493-.547.92-.96 1.28a4.62 4.62 0 0 1-1.5.82c-.587.2-1.233.3-1.94.3-.6 0-1.133-.067-1.6-.2a4.749 4.749 0 0 1-1.24-.54c-.36-.227-.68-.48-.96-.76a7.328 7.328 0 0 1-.72-.88l1.26-.96c.173.28.36.533.56.76a3.349 3.349 0 0 0 1.56.96c.32.08.693.12 1.12.12.987 0 1.733-.22 2.24-.66.507-.453.76-1.093.76-1.92V381c0-.827-.253-1.46-.76-1.9-.507-.453-1.253-.68-2.24-.68h-1.64v-1.46h1.52Zm8.532 8.04v-1.48h3.9v-11.24h-.14l-3.52 3.28-.98-1.06 3.7-3.46h2.62v12.48h3.6V385h-9.18Z"/>
  <path fill="#F2F2F2" stroke="#000" d="M.734 584.798a4.5 4.5 0 0 0 4.495 4.702h349.337a4.5 4.5 0 0 0 4.484-4.874l-12.166-146a4.5 4.5 0 0 0-4.485-4.126H11.781a4.5 4.5 0 0 0-4.496 4.298l-6.551 146Z"/>
  <rect width="15" height="15" x="34" y="463" fill="#505050" rx="4"/>
  <rect width="15" height="15" x="57" y="463" fill="#505050" rx="4"/>
  <rect width="15" height="15" x="80" y="463" fill="#505050" rx="4"/>
  <rect width="15" height="15" x="103" y="463" fill="#505050" rx="4"/>
  <rect width="15" height="15" x="126" y="463" fill="#505050" rx="4"/>
  <rect width="15" height="15" x="149" y="463" fill="#505050" rx="4"/>
  <rect width="15" height="15" x="172" y="463" fill="#505050" rx="4"/>
  <rect width="15" height="15" x="195" y="463" fill="#505050" rx="4"/>
  <rect width="15" height="15" x="218" y="463" fill="#505050" rx="4"/>
  <rect width="15" height="15" x="241" y="463" fill="#505050" rx="4"/>
  <rect width="15" height="15" x="264" y="463" fill="#505050" rx="4"/>
  <rect width="15" height="15" x="287" y="463" fill="#505050" rx="4"/>
  <rect width="15" height="15" x="310" y="463" fill="#505050" rx="4"/>
  <rect width="15" height="15" x="31" y="488" fill="#505050" rx="4"/>
  <rect width="15" height="15" x="54.5" y="488" fill="#505050" rx="4"/>
  <rect width="15" height="15" x="78" y="488" fill="#505050" rx="4"/>
  <rect width="15" height="15" x="101.5" y="488" fill="#505050" rx="4"/>
  <rect width="15" height="15" x="125" y="488" fill="#505050" rx="4"/>
  <rect width="15" height="15" x="148.5" y="488" fill="#505050" rx="4"/>
  <rect width="15" height="15" x="172" y="488" fill="#505050" rx="4"/>
  <rect width="15" height="15" x="195.5" y="488" fill="#505050" rx="4"/>
  <rect width="15" height="15" x="219" y="488" fill="#505050" rx="4"/>
  <rect width="15" height="15" x="242.5" y="488" fill="#505050" rx="4"/>
  <rect width="15" height="15" x="266" y="488" fill="#505050" rx="4"/>
  <rect width="15" height="15" x="289.5" y="488" fill="#505050" rx="4"/>
  <rect width="15" height="15" x="313" y="488" fill="#505050" rx="4"/>
  <rect width="15" height="15" x="25" y="513" fill="#505050" rx="4"/>
  <rect width="15" height="15" x="50" y="513" fill="#505050" rx="4"/>
  <rect width="15" height="15" x="75" y="513" fill="#505050" rx="4"/>
  <rect width="15" height="15" x="100" y="513" fill="#505050" rx="4"/>
  <rect width="15" height="15" x="125" y="513" fill="#505050" rx="4"/>
  <rect width="15" height="15" x="150" y="513" fill="#505050" rx="4"/>
  <rect width="15" height="15" x="175" y="513" fill="#505050" rx="4"/>
  <rect width="15" height="15" x="200" y="513" fill="#505050" rx="4"/>
  <rect width="15" height="15" x="225" y="513" fill="#505050" rx="4"/>
  <rect width="15" height="15" x="250" y="513" fill="#505050" rx="4"/>
  <rect width="15" height="15" x="275" y="513" fill="#505050" rx="4"/>
  <rect width="15" height="15" x="300" y="513" fill="#505050" rx="4"/>
  <rect width="15" height="15" x="325" y="513" fill="#505050" rx="4"/>
  <rect width="15" height="15" x="16" y="538" fill="#505050" rx="4"/>
  <rect width="15" height="15" x="42" y="538" fill="#505050" rx="4"/>
  <rect width="15" height="15" x="68" y="538" fill="#505050" rx="4"/>
  <rect width="15" height="15" x="94" y="538" fill="#505050" rx="4"/>
  <rect width="15" height="15" x="120" y="538" fill="#505050" rx="4"/>
  <rect width="15" height="15" x="146" y="538" fill="#505050" rx="4"/>
  <rect width="15" height="15" x="172" y="538" fill="#505050" rx="4"/>
  <rect width="15" height="15" x="198" y="538" fill="#505050" rx="4"/>
  <rect width="15" height="15" x="224" y="538" fill="#505050" rx="4"/>
  <rect width="15" height="15" x="250" y="538" fill="#505050" rx="4"/>
  <rect width="15" height="15" x="276" y="538" fill="#505050" rx="4"/>
  <rect width="15" height="15" x="302" y="538" fill="#505050" rx="4"/>
  <rect width="15" height="15" x="328" y="538" fill="#505050" rx="4"/>
  <circle cx="407" cy="367" r="95.5" fill="#fff" stroke="#000"/>
  <path fill="#fff" stroke="#000" d="M250 772.5c21.073-476.457 316.683-478.209 336 0H250Z"/>
  <rect width="406.964" height="67.04" x="116" fill="#fff" rx="33.52"/>
  <path fill="#000" d="M157.68 32.68h-6.78l-1.28 6.36H148l2.8-13.96h1.62l-1.22 6.16h6.78l1.24-6.16h1.62l-2.8 13.96h-1.62l1.26-6.36ZM169.632 39.04c-.453 0-.793-.113-1.02-.34-.213-.227-.32-.527-.32-.9 0-.16.02-.34.06-.54l.1-.46h-.06c-.427.867-.9 1.5-1.42 1.9-.52.387-1.16.58-1.92.58-.947 0-1.707-.347-2.28-1.04-.573-.707-.86-1.673-.86-2.9 0-.76.1-1.54.3-2.34a8.07 8.07 0 0 1 .94-2.22 5.312 5.312 0 0 1 1.56-1.66c.64-.427 1.387-.64 2.24-.64.307 0 .607.04.9.12.293.08.56.2.8.36.24.16.447.36.62.6s.3.52.38.84h.08l.34-1.68h1.54l-1.8 8.96h1.46l-.26 1.36h-1.38Zm-4.18-1.16c.453 0 .853-.087 1.2-.26.347-.187.673-.44.98-.76.347-.347.62-.72.82-1.12.213-.4.373-.853.48-1.36l.42-2.1c.067-.32.073-.62.02-.9a1.546 1.546 0 0 0-.36-.76 1.917 1.917 0 0 0-.76-.54c-.32-.133-.707-.2-1.16-.2-.84 0-1.533.273-2.08.82-.547.547-.92 1.32-1.12 2.32l-.3 1.5c-.067.373-.1.713-.1 1.02 0 .707.167 1.273.5 1.7.333.427.82.64 1.46.64ZM175.372 28.72h4.48c.8 0 1.427.2 1.88.6.467.387.7.92.7 1.6 0 .707-.227 1.287-.68 1.74-.44.44-1.02.74-1.74.9l-.02.06c.56.107 1 .327 1.32.66.333.32.5.733.5 1.24 0 .427-.087.853-.26 1.28-.16.413-.393.787-.7 1.12a3.767 3.767 0 0 1-1.1.82c-.427.2-.907.3-1.44.3h-5.04l2.1-10.32Zm2.78 9c.56 0 1.013-.14 1.36-.42a1.95 1.95 0 0 0 .68-1.12c.067-.293.1-.52.1-.68 0-.373-.127-.66-.38-.86-.24-.213-.587-.32-1.04-.32h-3.12l-.68 3.4h3.08Zm.76-4.68c.44 0 .847-.127 1.22-.38s.613-.633.72-1.14c.027-.107.04-.213.04-.32.013-.12.02-.213.02-.28 0-.267-.127-.48-.38-.64-.24-.16-.553-.24-.94-.24h-2.96l-.6 3h2.88ZM188.155 39.28c-1.24 0-2.2-.367-2.88-1.1-.68-.733-1.02-1.807-1.02-3.22 0-.853.126-1.667.38-2.44a7.011 7.011 0 0 1 1.1-2.08 5.402 5.402 0 0 1 1.7-1.42 4.593 4.593 0 0 1 2.22-.54c.44 0 .86.06 1.26.18.4.107.753.273 1.06.5.306.227.546.513.72.86.186.347.28.753.28 1.22 0 1.133-.587 1.973-1.76 2.52-1.16.547-2.947.833-5.36.86-.027.147-.047.3-.06.46v.38c0 .733.206 1.327.62 1.78.426.44 1.04.66 1.84.66a3.52 3.52 0 0 0 1.76-.44c.533-.307 1-.707 1.4-1.2l1 .9c-.64.787-1.327 1.34-2.06 1.66-.72.307-1.454.46-2.2.46Zm1.34-9.48c-.4 0-.787.073-1.16.22-.36.147-.687.353-.98.62a3.66 3.66 0 0 0-.74.96c-.2.373-.347.787-.44 1.24l-.12.58c1.106-.04 2.006-.107 2.7-.2.693-.107 1.233-.247 1.62-.42.4-.187.666-.407.8-.66.146-.253.22-.56.22-.92 0-.28-.054-.507-.16-.68a1.217 1.217 0 0 0-.42-.44 1.711 1.711 0 0 0-.62-.22 3.05 3.05 0 0 0-.7-.08ZM196.29 28.72h1.54l-.46 2.24h.06c.426-.867.9-1.493 1.42-1.88.52-.4 1.16-.6 1.92-.6.946 0 1.706.353 2.28 1.06.573.693.86 1.653.86 2.88 0 .76-.107 1.547-.32 2.36-.2.8-.507 1.54-.92 2.22a5.312 5.312 0 0 1-1.58 1.64c-.627.427-1.367.64-2.22.64-.307 0-.607-.04-.9-.12-.294-.08-.56-.2-.8-.36-.24-.16-.447-.36-.62-.6a2.41 2.41 0 0 1-.38-.84h-.08l-1.14 5.68h-1.54l2.88-14.32Zm2.44 9.16c.84 0 1.533-.273 2.08-.82.546-.547.92-1.32 1.12-2.32l.3-1.5c.066-.373.1-.713.1-1.02 0-.68-.16-1.24-.48-1.68-.307-.44-.807-.66-1.5-.66-.454 0-.854.093-1.2.28a4.384 4.384 0 0 0-.96.74 4.61 4.61 0 0 0-.82 1.1c-.214.4-.374.86-.48 1.38l-.42 2.1c-.067.32-.074.627-.02.92.053.293.173.553.36.78.186.213.433.387.74.52.32.12.713.18 1.18.18ZM207.735 28.72h1.54l-.88 4.32h4.62l.88-4.32h1.54l-2.08 10.32h-1.54l.94-4.64h-4.62l-.94 4.64h-1.54l2.08-10.32ZM220.846 39.28a4.167 4.167 0 0 1-1.5-.26 3.42 3.42 0 0 1-1.18-.8c-.32-.36-.574-.8-.76-1.32-.187-.533-.28-1.153-.28-1.86 0-.867.126-1.693.38-2.48.266-.8.633-1.5 1.1-2.1a5.415 5.415 0 0 1 1.68-1.44 4.4 4.4 0 0 1 2.16-.54c.533 0 1.026.093 1.48.28.466.173.86.44 1.18.8.333.347.593.787.78 1.32.186.533.28 1.147.28 1.84 0 .867-.134 1.7-.4 2.5a6.726 6.726 0 0 1-1.08 2.08 5.438 5.438 0 0 1-1.68 1.44c-.654.36-1.374.54-2.16.54Zm.2-1.38c.746 0 1.413-.273 2-.82.586-.547.986-1.347 1.2-2.4l.3-1.5c.066-.333.1-.633.1-.9 0-.72-.207-1.3-.62-1.74-.4-.453-.994-.68-1.78-.68-.747 0-1.414.273-2 .82-.587.547-.987 1.347-1.2 2.4l-.3 1.5c-.067.333-.1.633-.1.9 0 .72.2 1.307.6 1.76.413.44 1.013.66 1.8.66ZM232.022 39.28c-1.24 0-2.2-.367-2.88-1.1-.68-.733-1.02-1.807-1.02-3.22 0-.853.127-1.667.38-2.44a7.034 7.034 0 0 1 1.1-2.08 5.413 5.413 0 0 1 1.7-1.42 4.598 4.598 0 0 1 2.22-.54c.44 0 .86.06 1.26.18.4.107.753.273 1.06.5.307.227.547.513.72.86.187.347.28.753.28 1.22 0 1.133-.587 1.973-1.76 2.52-1.16.547-2.947.833-5.36.86-.027.147-.047.3-.06.46v.38c0 .733.207 1.327.62 1.78.427.44 1.04.66 1.84.66a3.52 3.52 0 0 0 1.76-.44c.533-.307 1-.707 1.4-1.2l1 .9c-.64.787-1.327 1.34-2.06 1.66-.72.307-1.453.46-2.2.46Zm1.34-9.48c-.4 0-.787.073-1.16.22-.36.147-.687.353-.98.62a3.66 3.66 0 0 0-.74.96c-.2.373-.347.787-.44 1.24l-.12.58c1.107-.04 2.007-.107 2.7-.2.693-.107 1.233-.247 1.62-.42.4-.187.667-.407.8-.66.147-.253.22-.56.22-.92 0-.28-.053-.507-.16-.68a1.217 1.217 0 0 0-.42-.44 1.704 1.704 0 0 0-.62-.22 3.05 3.05 0 0 0-.7-.08ZM239.006 36.7c.32 0 .567.067.74.2.187.133.28.333.28.6a2.494 2.494 0 0 1-.08.62c-.053.253-.14.54-.26.86a5.7 5.7 0 0 1-.48.94 6.19 6.19 0 0 1-.68.94 4.9 4.9 0 0 1-.9.84h-1.3c.493-.427.887-.847 1.18-1.26.307-.4.567-.827.78-1.28-.44-.107-.66-.353-.66-.74a2.494 2.494 0 0 1 .08-.62c.053-.267.167-.513.34-.74.187-.24.507-.36.96-.36ZM247.881 39.04l2.08-10.32h1.54l-.42 2.04h.1c.36-.773.787-1.347 1.28-1.72.507-.373 1.134-.56 1.88-.56.894 0 1.56.253 2 .76.44.507.66 1.207.66 2.1 0 .187-.013.393-.04.62a4.768 4.768 0 0 1-.1.72l-1 5h1.46l-.26 1.36h-1.46c-.386 0-.7-.093-.94-.28-.226-.187-.34-.48-.34-.88v-.18c0-.053.014-.133.04-.24l.96-4.78c.04-.2.067-.393.08-.58.014-.2.02-.36.02-.48 0-.587-.126-1.02-.38-1.3-.24-.293-.64-.44-1.2-.44-.72 0-1.353.273-1.9.82a4.74 4.74 0 0 0-.88 1.24c-.24.48-.4.927-.48 1.34l-1.16 5.76h-1.54ZM263.17 39.28a4.167 4.167 0 0 1-1.5-.26 3.429 3.429 0 0 1-1.18-.8c-.32-.36-.573-.8-.76-1.32-.187-.533-.28-1.153-.28-1.86 0-.867.127-1.693.38-2.48.267-.8.633-1.5 1.1-2.1a5.438 5.438 0 0 1 1.68-1.44 4.4 4.4 0 0 1 2.16-.54c.533 0 1.027.093 1.48.28.467.173.86.44 1.18.8.333.347.593.787.78 1.32.187.533.28 1.147.28 1.84 0 .867-.133 1.7-.4 2.5a6.684 6.684 0 0 1-1.08 2.08 5.438 5.438 0 0 1-1.68 1.44 4.4 4.4 0 0 1-2.16.54Zm.2-1.38c.747 0 1.413-.273 2-.82.587-.547.987-1.347 1.2-2.4l.3-1.5c.067-.333.1-.633.1-.9 0-.72-.207-1.3-.62-1.74-.4-.453-.993-.68-1.78-.68-.747 0-1.413.273-2 .82-.587.547-.987 1.347-1.2 2.4l-.3 1.5c-.067.333-.1.633-.1.9 0 .72.2 1.307.6 1.76.413.44 1.013.66 1.8.66ZM272.266 28.72h1.54l-.46 2.24h.06c.427-.867.9-1.493 1.42-1.88.52-.4 1.16-.6 1.92-.6.947 0 1.707.353 2.28 1.06.573.693.86 1.653.86 2.88 0 .76-.107 1.547-.32 2.36-.2.8-.507 1.54-.92 2.22a5.3 5.3 0 0 1-1.58 1.64c-.627.427-1.367.64-2.22.64-.307 0-.607-.04-.9-.12-.293-.08-.56-.2-.8-.36-.24-.16-.447-.36-.62-.6s-.3-.52-.38-.84h-.08l-1.14 5.68h-1.54l2.88-14.32Zm2.44 9.16c.84 0 1.533-.273 2.08-.82.547-.547.92-1.32 1.12-2.32l.3-1.5c.067-.373.1-.713.1-1.02 0-.68-.16-1.24-.48-1.68-.307-.44-.807-.66-1.5-.66-.453 0-.853.093-1.2.28a4.432 4.432 0 0 0-.96.74c-.333.333-.607.7-.82 1.1-.213.4-.373.86-.48 1.38l-.42 2.1c-.067.32-.073.627-.02.92.053.293.173.553.36.78.187.213.433.387.74.52.32.12.713.18 1.18.18ZM289.651 39.04c-.453 0-.793-.113-1.02-.34-.213-.227-.32-.527-.32-.9 0-.16.02-.34.06-.54l.1-.46h-.06c-.426.867-.9 1.5-1.42 1.9-.52.387-1.16.58-1.92.58-.946 0-1.706-.347-2.28-1.04-.573-.707-.86-1.673-.86-2.9 0-.76.1-1.54.3-2.34a8.101 8.101 0 0 1 .94-2.22 5.335 5.335 0 0 1 1.56-1.66c.64-.427 1.387-.64 2.24-.64.307 0 .607.04.9.12.294.08.56.2.8.36.24.16.447.36.62.6.174.24.3.52.38.84h.08l.34-1.68h1.54l-1.8 8.96h1.46l-.26 1.36h-1.38Zm-4.18-1.16c.454 0 .854-.087 1.2-.26a3.95 3.95 0 0 0 .98-.76c.347-.347.62-.72.82-1.12.214-.4.374-.853.48-1.36l.42-2.1c.067-.32.074-.62.02-.9a1.546 1.546 0 0 0-.36-.76 1.91 1.91 0 0 0-.76-.54c-.32-.133-.706-.2-1.16-.2-.84 0-1.533.273-2.08.82-.546.547-.92 1.32-1.12 2.32l-.3 1.5a5.91 5.91 0 0 0-.1 1.02c0 .707.167 1.273.5 1.7.334.427.82.64 1.46.64ZM304.478 33.5h-.1c-.36.667-.793 1.167-1.3 1.5-.493.333-1.113.5-1.86.5a3.29 3.29 0 0 1-1.12-.18 2.698 2.698 0 0 1-.82-.52 2.25 2.25 0 0 1-.52-.72c-.12-.28-.18-.573-.18-.88 0-.427.047-.873.14-1.34l.64-3.14h1.54l-.64 3.14a4.752 4.752 0 0 0-.1.98c0 .387.127.693.38.92.267.227.653.34 1.16.34.453 0 .86-.08 1.22-.24a3.56 3.56 0 0 0 .96-.64c.28-.253.5-.533.66-.84.173-.307.287-.6.34-.88l.56-2.78h1.54l-2.08 10.32h-1.54l1.12-5.54ZM312.149 30.08h-3.36l.28-1.36h8.26l-.28 1.36h-3.36l-1.8 8.96h-1.54l1.8-8.96ZM321.256 39.28a4.167 4.167 0 0 1-1.5-.26 3.429 3.429 0 0 1-1.18-.8c-.32-.36-.573-.8-.76-1.32-.187-.533-.28-1.153-.28-1.86 0-.867.127-1.693.38-2.48.267-.8.633-1.5 1.1-2.1a5.438 5.438 0 0 1 1.68-1.44 4.4 4.4 0 0 1 2.16-.54c.533 0 1.027.093 1.48.28.467.173.86.44 1.18.8.333.347.593.787.78 1.32.187.533.28 1.147.28 1.84 0 .867-.133 1.7-.4 2.5a6.684 6.684 0 0 1-1.08 2.08 5.438 5.438 0 0 1-1.68 1.44 4.4 4.4 0 0 1-2.16.54Zm.2-1.38c.747 0 1.413-.273 2-.82.587-.547.987-1.347 1.2-2.4l.3-1.5c.067-.333.1-.633.1-.9 0-.72-.207-1.3-.62-1.74-.4-.453-.993-.68-1.78-.68-.747 0-1.413.273-2 .82-.587.547-.987 1.347-1.2 2.4l-.3 1.5c-.067.333-.1.633-.1.9 0 .72.2 1.307.6 1.76.413.44 1.013.66 1.8.66ZM329.127 33.78l.32-1.64h5.02l-.32 1.64h-5.02ZM339.082 30.08h-3.36l.28-1.36h8.26l-.28 1.36h-3.36l-1.8 8.96h-1.54l1.8-8.96ZM348.19 39.28a4.167 4.167 0 0 1-1.5-.26 3.42 3.42 0 0 1-1.18-.8c-.32-.36-.574-.8-.76-1.32-.187-.533-.28-1.153-.28-1.86 0-.867.126-1.693.38-2.48.266-.8.633-1.5 1.1-2.1a5.415 5.415 0 0 1 1.68-1.44 4.4 4.4 0 0 1 2.16-.54c.533 0 1.026.093 1.48.28.466.173.86.44 1.18.8.333.347.593.787.78 1.32.186.533.28 1.147.28 1.84 0 .867-.134 1.7-.4 2.5a6.726 6.726 0 0 1-1.08 2.08 5.438 5.438 0 0 1-1.68 1.44c-.654.36-1.374.54-2.16.54Zm.2-1.38c.746 0 1.413-.273 2-.82.586-.547.986-1.347 1.2-2.4l.3-1.5c.066-.333.1-.633.1-.9 0-.72-.207-1.3-.62-1.74-.4-.453-.994-.68-1.78-.68-.747 0-1.414.273-2 .82-.587.547-.987 1.347-1.2 2.4l-.3 1.5c-.067.333-.1.633-.1.9 0 .72.2 1.307.6 1.76.413.44 1.013.66 1.8.66ZM362.012 28.72h1.54l-.88 4.34h1.84l2.76-3.42c.28-.347.554-.587.82-.72.267-.133.594-.2.98-.2h.92l-.28 1.36h-1.14l-2.28 2.82c-.226.267-.426.453-.6.56-.16.107-.36.18-.6.22l-.02.08c.24.067.434.173.58.32.147.147.294.407.44.78l1.16 2.82h1.1l-.28 1.36h-.76c-.466 0-.82-.12-1.06-.36-.24-.24-.46-.6-.66-1.08l-1.34-3.24h-1.84l-.94 4.68h-1.54l2.08-10.32ZM378.617 28.72h1.64l-6.98 12.66c-.334.6-.66 1.027-.98 1.28-.307.253-.72.38-1.24.38h-1.6l.26-1.32h1.86l1.28-2.36-1.64-10.64h1.5l.76 5.1.42 3.76h.1l1.86-3.76 2.76-5.1ZM380.264 39.04l2.08-10.32h1.54l-.42 2.04h.1c.36-.773.787-1.347 1.28-1.72.507-.373 1.134-.56 1.88-.56.894 0 1.56.253 2 .76.44.507.66 1.207.66 2.1 0 .187-.013.393-.04.62a4.768 4.768 0 0 1-.1.72l-1 5h1.46l-.26 1.36h-1.46c-.386 0-.7-.093-.94-.28-.226-.187-.34-.48-.34-.88v-.18c0-.053.014-.133.04-.24l.96-4.78c.04-.2.067-.393.08-.58.014-.2.02-.36.02-.48 0-.587-.126-1.02-.38-1.3-.24-.293-.64-.44-1.2-.44-.72 0-1.353.273-1.9.82a4.74 4.74 0 0 0-.88 1.24c-.24.48-.4.927-.48 1.34l-1.16 5.76h-1.54ZM395.073 28.72l-1.28 6.36c-.04.2-.067.4-.08.6-.014.187-.02.34-.02.46 0 .573.113 1.007.34 1.3.24.293.64.44 1.2.44.706 0 1.326-.273 1.86-.82.373-.387.673-.813.9-1.28.226-.48.38-.913.46-1.3l1.16-5.76h1.54l-1.8 8.96h1.46l-.26 1.36h-1.4c-.44 0-.774-.113-1-.34-.214-.24-.32-.547-.32-.92 0-.133.026-.327.08-.58l.04-.2h-.1c-.36.787-.787 1.367-1.28 1.74-.494.36-1.1.54-1.82.54-.88 0-1.54-.253-1.98-.76-.44-.507-.66-1.207-.66-2.1 0-.187.006-.393.02-.62.026-.227.066-.467.12-.72l1.28-6.36h1.54ZM406.348 30.08h-3.36l.28-1.36h8.26l-.28 1.36h-3.36l-1.8 8.96h-1.54l1.8-8.96ZM413.633 28.72h1.54l-.76 3.74h2.5c1.014 0 1.747.227 2.2.68.467.453.7 1.093.7 1.92 0 .533-.086 1.04-.26 1.52-.173.48-.426.907-.76 1.28-.333.36-.746.647-1.24.86-.48.213-1.026.32-1.64.32h-4.36l2.08-10.32Zm2.28 8.96c1.227 0 1.98-.567 2.26-1.7.054-.187.087-.353.1-.5.014-.147.02-.293.02-.44 0-.4-.126-.7-.38-.9-.24-.213-.653-.32-1.24-.32h-2.54l-.78 3.86h2.56ZM423.803 34.88l.66-3.3a5.209 5.209 0 0 0 1.48-.24 4.998 4.998 0 0 0 1.2-.56c.347-.24.627-.52.84-.84.227-.32.373-.66.44-1.02.027-.093.04-.213.04-.36.013-.16.02-.293.02-.4 0-.573-.173-1.027-.52-1.36-.347-.347-.86-.52-1.54-.52-.773 0-1.393.22-1.86.66-.453.427-.82 1-1.1 1.72l-1.34-.54c.413-.987.967-1.78 1.66-2.38.707-.6 1.633-.9 2.78-.9 1.093 0 1.967.287 2.62.86.653.56.98 1.347.98 2.36 0 .547-.107 1.073-.32 1.58-.2.507-.493.973-.88 1.4a5.051 5.051 0 0 1-1.38 1.06c-.547.293-1.16.5-1.84.62l-.44 2.16h-1.5Zm.02 4.4c-.32 0-.573-.067-.76-.2-.173-.133-.26-.333-.26-.6 0-.093.007-.2.02-.32a2.44 2.44 0 0 1 .06-.36c.053-.267.167-.513.34-.74.187-.24.507-.36.96-.36.32 0 .567.067.74.2.187.133.28.333.28.6 0 .093-.007.207-.02.34a2.47 2.47 0 0 1-.06.34 2.339 2.339 0 0 1-.12.4 1.056 1.056 0 0 1-.24.36 1.16 1.16 0 0 1-.38.24c-.147.067-.333.1-.56.1ZM443.824 39.04l-.52-4.12h-5.42l-2.16 4.12h-1.72l7.46-13.96h2.14l1.88 13.96h-1.66Zm-1.54-12.42h-.1l-3.56 6.86h4.52l-.86-6.86ZM454.512 28.72h6.18l-.28 1.36h-4.62l-1.8 8.96h-1.54l2.06-10.32ZM464.576 39.28a4.174 4.174 0 0 1-1.5-.26 3.438 3.438 0 0 1-1.18-.8c-.32-.36-.573-.8-.76-1.32-.186-.533-.28-1.153-.28-1.86 0-.8.12-1.58.36-2.34.24-.76.574-1.433 1-2.02.44-.6.96-1.073 1.56-1.42.6-.36 1.26-.54 1.98-.54.68 0 1.247.18 1.7.54.454.36.754.78.9 1.26h.08v-.6c0-.947-.073-1.687-.22-2.22-.146-.547-.373-.973-.68-1.28a3.013 3.013 0 0 0-1.16-.74 3.977 3.977 0 0 0-1.34-.22c-.32 0-.593.007-.82.02-.226.013-.446.033-.66.06l.3-1.46a4.69 4.69 0 0 1 .52-.06c.2-.013.42-.02.66-.02.84 0 1.547.113 2.12.34.574.227 1.06.54 1.46.94.24.24.447.507.62.8.174.28.314.62.42 1.02.12.387.207.847.26 1.38.054.533.08 1.167.08 1.9 0 .68-.04 1.373-.12 2.08a12.39 12.39 0 0 1-.36 2.04 10.52 10.52 0 0 1-.64 1.86 5.305 5.305 0 0 1-1.02 1.52c-.4.427-.873.767-1.42 1.02-.533.253-1.153.38-1.86.38Zm.2-1.38c.734 0 1.38-.267 1.94-.8.574-.547.98-1.42 1.22-2.62l.14-.7c.067-.307.114-.553.14-.74.027-.2.04-.373.04-.52 0-.72-.193-1.3-.58-1.74-.373-.453-.94-.68-1.7-.68-.346 0-.693.067-1.04.2a3.062 3.062 0 0 0-.96.6c-.28.267-.533.6-.76 1-.213.4-.373.86-.48 1.38l-.26 1.3a3.706 3.706 0 0 0-.1.9c0 .72.2 1.307.6 1.76.4.44 1 .66 1.8.66ZM475.889 39.28c-1.24 0-2.2-.367-2.88-1.1-.68-.733-1.02-1.807-1.02-3.22 0-.853.127-1.667.38-2.44a7.034 7.034 0 0 1 1.1-2.08 5.413 5.413 0 0 1 1.7-1.42 4.598 4.598 0 0 1 2.22-.54c.44 0 .86.06 1.26.18.4.107.753.273 1.06.5.307.227.547.513.72.86.187.347.28.753.28 1.22 0 1.133-.587 1.973-1.76 2.52-1.16.547-2.947.833-5.36.86-.027.147-.047.3-.06.46v.38c0 .733.207 1.327.62 1.78.427.44 1.04.66 1.84.66a3.52 3.52 0 0 0 1.76-.44c.533-.307 1-.707 1.4-1.2l1 .9c-.64.787-1.327 1.34-2.06 1.66-.72.307-1.453.46-2.2.46Zm1.34-9.48c-.4 0-.787.073-1.16.22-.36.147-.687.353-.98.62a3.66 3.66 0 0 0-.74.96c-.2.373-.347.787-.44 1.24l-.12.58c1.107-.04 2.007-.107 2.7-.2.693-.107 1.233-.247 1.62-.42.4-.187.667-.407.8-.66.147-.253.22-.56.22-.92 0-.28-.053-.507-.16-.68a1.217 1.217 0 0 0-.42-.44 1.704 1.704 0 0 0-.62-.22 3.05 3.05 0 0 0-.7-.08ZM484.604 34.88l.66-3.3a5.209 5.209 0 0 0 1.48-.24 4.998 4.998 0 0 0 1.2-.56c.347-.24.627-.52.84-.84.227-.32.373-.66.44-1.02.027-.093.04-.213.04-.36.013-.16.02-.293.02-.4 0-.573-.173-1.027-.52-1.36-.347-.347-.86-.52-1.54-.52-.773 0-1.393.22-1.86.66-.453.427-.82 1-1.1 1.72l-1.34-.54c.413-.987.967-1.78 1.66-2.38.707-.6 1.633-.9 2.78-.9 1.093 0 1.967.287 2.62.86.653.56.98 1.347.98 2.36 0 .547-.107 1.073-.32 1.58-.2.507-.493.973-.88 1.4a5.051 5.051 0 0 1-1.38 1.06c-.547.293-1.16.5-1.84.62l-.44 2.16h-1.5Zm.02 4.4c-.32 0-.573-.067-.76-.2-.173-.133-.26-.333-.26-.6 0-.093.007-.2.02-.32a2.44 2.44 0 0 1 .06-.36c.053-.267.167-.513.34-.74.187-.24.507-.36.96-.36.32 0 .567.067.74.2.187.133.28.333.28.6 0 .093-.007.207-.02.34a2.47 2.47 0 0 1-.06.34 2.339 2.339 0 0 1-.12.4 1.056 1.056 0 0 1-.24.36 1.16 1.16 0 0 1-.38.24c-.147.067-.333.1-.56.1Z"/>
  <circle cx="423" cy="248" r="5" fill="#fff"/>
  <circle cx="423" cy="223" r="6" fill="#fff"/>
  <circle cx="422.5" cy="195.5" r="7.5" fill="#fff"/>
  <circle cx="422.5" cy="165.5" r="8.5" fill="#fff"/>
  <circle cx="422.5" cy="133.5" r="9.5" fill="#fff"/>
  <circle cx="422.5" cy="99.5" r="10.5" fill="#fff"/>
  <circle cx="423.5" cy="68.5" r="11.5" fill="#fff"/>
  <circle cx="423" cy="68" r="5" fill="#fff"/>
  <path fill="#000" d="M42.248 177.68h6.832V186h-1.744v-6.896h-3.344V186h-1.744v-8.32Zm9.328 0h1.744v3.344h3.584v-3.344h1.744V186h-1.744v-3.552H53.32V186h-1.744v-8.32ZM86.248 177.68h4.432c.715 0 1.264.192 1.648.576.395.384.592.896.592 1.536 0 1.045-.56 1.637-1.68 1.776v.08c.672.053 1.168.251 1.488.592.33.331.496.768.496 1.312 0 .352-.059.677-.176.976a2.19 2.19 0 0 1-.48.784 2.242 2.242 0 0 1-.752.512 2.745 2.745 0 0 1-1.008.176h-4.56v-8.32Zm4.16 6.992c.31 0 .555-.08.736-.24.181-.16.272-.395.272-.704v-.432c0-.309-.09-.544-.272-.704-.181-.171-.427-.256-.736-.256H87.96v2.336h2.448Zm-.224-3.536c.299 0 .528-.075.688-.224.16-.149.24-.363.24-.64v-.4c0-.277-.08-.491-.24-.64-.16-.149-.39-.224-.688-.224H87.96v2.128h2.224Zm6.714-2.032h-2.656v-1.424h7.056v1.424h-2.656V186h-1.744v-6.896ZM134.464 186.192c-.597 0-1.131-.101-1.6-.304a3.222 3.222 0 0 1-1.184-.864 4.06 4.06 0 0 1-.736-1.376 6.011 6.011 0 0 1-.256-1.808c0-.661.085-1.259.256-1.792.171-.544.416-1.003.736-1.376.32-.384.715-.677 1.184-.88.469-.203 1.003-.304 1.6-.304.832 0 1.515.187 2.048.56.533.373.923.869 1.168 1.488l-1.44.672a1.737 1.737 0 0 0-.624-.912c-.288-.235-.672-.352-1.152-.352-.64 0-1.125.203-1.456.608-.32.395-.48.912-.48 1.552v1.488c0 .64.16 1.163.48 1.568.331.395.816.592 1.456.592.512 0 .917-.123 1.216-.368a2.66 2.66 0 0 0 .736-1.008l1.328.704c-.277.683-.693 1.205-1.248 1.568s-1.232.544-2.032.544Zm4.94-8.512h1.744v1.376h.08c.182-.501.475-.885.88-1.152.416-.277.902-.416 1.456-.416 1.056 0 1.872.384 2.448 1.152.576.757.864 1.824.864 3.2 0 1.376-.288 2.448-.864 3.216-.576.757-1.392 1.136-2.448 1.136-.554 0-1.04-.139-1.456-.416a2.338 2.338 0 0 1-.88-1.152h-.08v4.576h-1.744v-11.52Zm3.632 7.008c.608 0 1.094-.192 1.456-.576.363-.395.544-.912.544-1.552v-1.44c0-.64-.181-1.152-.544-1.536-.362-.395-.848-.592-1.456-.592-.533 0-.981.133-1.344.4-.362.256-.544.597-.544 1.024v2.848c0 .427.182.773.544 1.04.363.256.811.384 1.344.384ZM179.888 182.304h-.08c-.235.309-.533.56-.896.752-.363.192-.837.288-1.424.288-.885 0-1.557-.224-2.016-.672-.448-.448-.672-1.136-.672-2.064v-2.928h1.744v2.816c0 .469.123.816.368 1.04.245.213.64.32 1.184.32.544 0 .976-.08 1.296-.24.331-.16.496-.389.496-.688v-3.248h1.744V186h-1.744v-3.696Zm5.963-3.2h-2.656v-1.424h7.056v1.424h-2.656V186h-1.744v-6.896ZM219.248 177.68h6.832V186h-1.744v-6.896h-3.344V186h-1.744v-8.32Zm11.056 1.424h-2.656v-1.424h7.056v1.424h-2.656V186h-1.744v-6.896ZM266.464 186.192c-.597 0-1.131-.101-1.6-.304a3.222 3.222 0 0 1-1.184-.864 4.06 4.06 0 0 1-.736-1.376 6.011 6.011 0 0 1-.256-1.808c0-.661.085-1.259.256-1.792.171-.544.416-1.003.736-1.376.32-.384.715-.677 1.184-.88.469-.203 1.003-.304 1.6-.304.832 0 1.515.187 2.048.56.533.373.923.869 1.168 1.488l-1.44.672a1.737 1.737 0 0 0-.624-.912c-.288-.235-.672-.352-1.152-.352-.64 0-1.125.203-1.456.608-.32.395-.48.912-.48 1.552v1.488c0 .64.16 1.163.48 1.568.331.395.816.592 1.456.592.512 0 .917-.123 1.216-.368a2.66 2.66 0 0 0 .736-1.008l1.328.704c-.277.683-.693 1.205-1.248 1.568s-1.232.544-2.032.544Zm8.268 0c-.597 0-1.13-.096-1.6-.288a3.021 3.021 0 0 1-1.2-.944c-.33-.427-.586-.965-.768-1.616-.17-.661-.256-1.456-.256-2.384 0-1.131.08-2.101.24-2.912.171-.821.432-1.499.784-2.032a3.71 3.71 0 0 1 1.36-1.248c.555-.288 1.216-.464 1.984-.528l2.656-.24v1.712l-2.752.256c-.437.043-.805.128-1.104.256a1.752 1.752 0 0 0-.72.592c-.181.256-.32.603-.416 1.04-.096.427-.165.96-.208 1.6h.08c.214-.555.502-.971.864-1.248.374-.277.875-.416 1.504-.416.491 0 .939.096 1.344.288.416.181.774.448 1.072.8.299.352.528.784.688 1.296.171.501.256 1.077.256 1.728a5.47 5.47 0 0 1-.272 1.776 3.938 3.938 0 0 1-.768 1.344c-.33.373-.73.661-1.2.864a3.909 3.909 0 0 1-1.568.304Zm0-1.44c.608 0 1.088-.187 1.44-.56.352-.384.528-.944.528-1.68v-1.04c0-.736-.176-1.291-.528-1.664-.352-.384-.832-.576-1.44-.576-.64 0-1.13.171-1.472.512-.33.341-.496.8-.496 1.376v1.392c0 .736.176 1.296.528 1.68.352.373.832.56 1.44.56ZM307.248 177.68h4.432c.715 0 1.264.192 1.648.576.395.384.592.896.592 1.536 0 1.045-.56 1.637-1.68 1.776v.08c.672.053 1.168.251 1.488.592.331.331.496.768.496 1.312 0 .352-.059.677-.176.976-.107.299-.267.56-.48.784a2.242 2.242 0 0 1-.752.512 2.747 2.747 0 0 1-1.008.176h-4.56v-8.32Zm4.16 6.992c.309 0 .555-.08.736-.24.181-.16.272-.395.272-.704v-.432c0-.309-.091-.544-.272-.704-.181-.171-.427-.256-.736-.256h-2.448v2.336h2.448Zm-.224-3.536c.299 0 .528-.075.688-.224.16-.149.24-.363.24-.64v-.4c0-.277-.08-.491-.24-.64-.16-.149-.389-.224-.688-.224h-2.224v2.128h2.224Zm8.343 5.056c-.598 0-1.131-.101-1.6-.304a3.214 3.214 0 0 1-1.184-.864 4.042 4.042 0 0 1-.736-1.376 6.011 6.011 0 0 1-.256-1.808c0-.661.085-1.259.256-1.792.17-.544.416-1.003.736-1.376.32-.384.714-.677 1.184-.88.469-.203 1.002-.304 1.6-.304.832 0 1.514.187 2.048.56a3.23 3.23 0 0 1 1.168 1.488l-1.44.672a1.748 1.748 0 0 0-.624-.912c-.288-.235-.672-.352-1.152-.352-.64 0-1.126.203-1.456.608-.32.395-.48.912-.48 1.552v1.488c0 .64.16 1.163.48 1.568.33.395.816.592 1.456.592.512 0 .917-.123 1.216-.368.309-.256.554-.592.736-1.008l1.328.704c-.278.683-.694 1.205-1.248 1.568-.555.363-1.232.544-2.032.544Z"/>
</svg>
