<svg id="Capa_1" enable-background="new 0 0 512 512" height="512" viewBox="0 0 512 512" width="512" xmlns="http://www.w3.org/2000/svg"><g><path d="m214.706 312.295c-3.839 0-7.678-1.465-10.606-4.394-5.858-5.857-5.858-15.355 0-21.213l151.433-151.435c5.857-5.857 15.355-5.857 21.213 0s5.858 15.355 0 21.213l-151.434 151.435c-2.928 2.929-6.767 4.394-10.606 4.394z" fill="#ffb454"/><path d="m204.1 307.901c2.929 2.929 6.768 4.394 10.606 4.394s7.678-1.465 10.606-4.394l151.433-151.435c5.858-5.857 5.858-15.355 0-21.213l-172.645 172.648c-.001 0-.001 0 0 0z" fill="#ff8659"/><path d="m386.868 227.538c-.779 0-1.564-.061-2.349-.185-5.639-.894-10.283-4.911-11.977-10.363l-18.385-59.146-59.147-18.385c-5.452-1.695-9.469-6.338-10.363-11.978-.893-5.64 1.493-11.297 6.154-14.594l50.57-35.763-.792-61.934c-.073-5.709 3.102-10.965 8.189-13.557 5.088-2.594 11.206-2.07 15.781 1.344l49.639 37.043 58.657-19.891c5.408-1.836 11.387-.439 15.424 3.599 4.038 4.037 5.433 10.017 3.599 15.424l-19.892 58.657 37.044 49.639c3.415 4.576 3.936 10.694 1.344 15.781-2.592 5.088-7.848 8.272-13.557 8.189l-61.934-.791-35.763 50.569c-2.836 4.016-7.424 6.342-12.242 6.342z" fill="#ffdd54"/><path d="m8.787 503.213c-11.716-11.716-11.716-30.711 0-42.426l180.312-180.312c5.858-5.858 15.355-5.858 21.213 0l21.213 21.213c5.858 5.858 5.858 15.355 0 21.213l-180.312 180.312c-11.716 11.716-30.71 11.716-42.426 0z" fill="#6b61b1"/><g fill="#ffb454"><path d="m497 320h-15v-15c0-8.284-6.716-15-15-15s-15 6.716-15 15v15h-15c-8.284 0-15 6.716-15 15s6.716 15 15 15h15v15c0 8.284 6.716 15 15 15s15-6.716 15-15v-15h15c8.284 0 15-6.716 15-15s-6.716-15-15-15z"/><circle cx="347" cy="320" r="15"/><circle cx="467" cy="240" r="15"/></g><g fill="#ffdd54"><path d="m206 170h-15v-15c0-8.284-6.716-15-15-15s-15 6.716-15 15v15h-15c-8.284 0-15 6.716-15 15s6.716 15 15 15h15v15c0 8.284 6.716 15 15 15s15-6.716 15-15v-15h15c8.284 0 15-6.716 15-15s-6.716-15-15-15z"/><path d="m276 30h-15v-15c0-8.284-6.716-15-15-15s-15 6.716-15 15v15h-15c-8.284 0-15 6.716-15 15s6.716 15 15 15h15v15c0 8.284 6.716 15 15 15s15-6.716 15-15v-15h15c8.284 0 15-6.716 15-15s-6.716-15-15-15z"/><circle cx="141" cy="90" r="15"/></g><g><path d="m354.156 157.844 18.385 59.146c1.694 5.452 6.338 9.47 11.977 10.363.785.124 1.57.185 2.349.185 4.819 0 9.407-2.326 12.245-6.339l35.763-50.569 61.934.791c5.708.083 10.964-3.102 13.557-8.189 2.592-5.087 2.071-11.205-1.344-15.781l-37.044-49.639 19.892-58.657c1.833-5.407.438-11.387-3.599-15.424z" fill="#ffb454"/><path d="m8.787 503.213c11.716 11.716 30.711 11.716 42.426 0l180.312-180.312c5.858-5.858 5.858-15.355 0-21.213l-10.607-10.607z" fill="#453d81"/></g></g></svg>