<svg viewBox="0 0 76 96" fill="none" xmlns="http://www.w3.org/2000/svg">
<path d="M73.8 24.6L51.9 2.7C50.5 1.3 48.6 0.5 46.7 0.5H7.4C5.4 0.5 3.6 1.3 2.2 2.7C0.8 4.1 0 5.9 0 7.9V88.1C0 92.2 3.3 95.5 7.4 95.5H68.6C72.7 95.5 76 92.2 76 88.1V29.8C76 27.9 75.2 26 73.8 24.6ZM69.6 26.4H53.4C51.6 26.4 50.1 24.9 50.1 23.1V7L69.6 26.4ZM68.6 91.2H7.4C5.7 91.2 4.3 89.8 4.3 88.1V7.9C4.3 7.1 4.6 6.3 5.2 5.7C5.8 5.1 6.6 4.8 7.4 4.8H45.8V23.1C45.8 27.3 49.2 30.7 53.4 30.7H71.7V88.1C71.7 89.8 70.3 91.2 68.6 91.2Z" fill="black"/>
</svg>
