<svg xmlns="http://www.w3.org/2000/svg" viewBox="0 0 18 18" fill="none">
    <path fill-rule="evenodd" clip-rule="evenodd" d="M15.1893 1.75H12C11.5858 1.75 11.25 1.41421 11.25 1C11.25 0.585786 11.5858 0.25 12 0.25H17C17.4142 0.25 17.75 0.585786 17.75 1V6C17.75 6.41421 17.4142 6.75 17 6.75C16.5858 6.75 16.25 6.41421 16.25 6V2.81066L7.53033 11.5303C7.23744 11.8232 6.76256 11.8232 6.46967 11.5303C6.17678 11.2374 6.17678 10.7626 6.46967 10.4697L15.1893 1.75ZM7.99998 2V2.0001C8.26226 1.99639 8.50622 2.13419 8.63844 2.36073C8.77066 2.58727 8.77066 2.86746 8.63844 3.094C8.50622 3.32054 8.26226 3.45834 7.99998 3.45463C6.18559 3.45463 4.83468 3.45951 3.88349 3.56685C2.93229 3.67419 2.44115 3.87394 2.15622 4.15917C1.8713 4.44441 1.67209 4.93553 1.56532 5.88644C1.45855 6.83734 1.45453 8.18751 1.45453 10C1.45453 11.812 1.4608 13.1617 1.56958 14.1122C1.67836 15.0627 1.87911 15.5547 2.16617 15.8409C2.45322 16.1271 2.94507 16.3259 3.89489 16.4332C4.8447 16.5406 6.19269 16.5455 7.99996 16.5455C9.807 16.5455 11.1554 16.54 12.105 16.4318C13.0547 16.3236 13.5463 16.1238 13.8337 15.8367C14.1212 15.5495 14.3216 15.0578 14.4303 14.1079C14.5391 13.1581 14.5454 11.809 14.5454 10C14.5417 9.73776 14.6795 9.4938 14.906 9.36158C15.1326 9.22936 15.4128 9.22936 15.6393 9.36158C15.8658 9.4938 16.0036 9.73776 15.9999 10C15.9999 11.8104 16 13.1803 15.8749 14.2727C15.7498 15.3652 15.489 16.2389 14.8621 16.8651C14.2352 17.4913 13.3602 17.752 12.2684 17.8764C11.1765 18.0008 9.80819 18 7.99998 18C6.19199 18 4.82327 18.0026 3.73156 17.8793C2.63986 17.7559 1.76655 17.4963 1.13921 16.8708C0.511869 16.2452 0.248662 15.3713 0.123579 14.2784C-0.00150368 13.1855 1.76884e-06 11.8135 1.76884e-06 10C1.76884e-06 8.18703 -0.00191811 6.81548 0.120743 5.72305C0.243361 4.63055 0.500523 3.7573 1.12641 3.1307C1.7523 2.5041 2.6272 2.24409 3.72014 2.12075C4.81316 1.9974 6.18486 2 7.99998 2Z" fill="#b66e6e"/>
</svg>