<svg viewBox="0 0 70 70" fill="none" xmlns="http://www.w3.org/2000/svg">
    <path d="M25.808 65.4059C19.956 71.2569 10.446 71.2569 4.594 65.4059C-1.257 59.5539 -1.257 50.044 4.594 44.193L18.737 30.0499C24.315 24.4719 33.215 24.182 39.11 29.255C39.5081 29.6047 39.7516 30.0977 39.7873 30.6264C39.8229 31.155 39.6479 31.6764 39.3003 32.0764C38.9528 32.4764 38.4611 32.7225 37.9326 32.761C37.4041 32.7995 36.8819 32.6273 36.48 32.2819C32.138 28.5459 25.698 28.746 21.565 32.879L7.423 47.021C3.089 51.355 3.089 58.2439 7.423 62.5769C11.756 66.9109 18.646 66.9109 22.979 62.5769L36.414 49.142C36.5998 48.9562 36.8203 48.8089 37.063 48.7083C37.3057 48.6078 37.5658 48.5561 37.8285 48.5561C38.0912 48.5561 38.3513 48.6078 38.594 48.7083C38.8367 48.8089 39.0572 48.9562 39.243 49.142C39.4288 49.3277 39.5761 49.5482 39.6766 49.7909C39.7772 50.0336 39.8289 50.2938 39.8289 50.5565C39.8289 50.8192 39.7772 51.0793 39.6766 51.322C39.5761 51.5647 39.4288 51.7852 39.243 51.971L25.808 65.4059ZM51.263 39.95C45.685 45.529 36.785 45.818 30.89 40.745C30.6896 40.5727 30.5252 40.3626 30.4063 40.1267C30.2874 39.8907 30.2163 39.6337 30.1971 39.3701C30.1779 39.1066 30.211 38.8419 30.2944 38.5912C30.3778 38.3405 30.51 38.1088 30.6833 37.9093C30.8566 37.7099 31.0676 37.5467 31.3042 37.429C31.5407 37.3114 31.7982 37.2417 32.0619 37.2239C32.3255 37.2061 32.59 37.2406 32.8402 37.3254C33.0905 37.4102 33.3215 37.5436 33.52 37.718C37.862 41.454 44.302 41.2539 48.435 37.1209L62.577 22.979C66.911 18.646 66.911 11.7569 62.577 7.42294C58.244 3.08894 51.354 3.08894 47.021 7.42294L33.586 20.8579C33.4003 21.0437 33.1799 21.1911 32.9372 21.2916C32.6946 21.3922 32.4345 21.4439 32.1719 21.444C31.9092 21.444 31.6491 21.3924 31.4064 21.2919C31.1638 21.1914 30.9433 21.0442 30.7575 20.8585C30.5717 20.6728 30.4244 20.4523 30.3238 20.2097C30.2233 19.967 30.1715 19.7069 30.1714 19.4443C30.1714 19.1816 30.2231 18.9216 30.3236 18.6789C30.424 18.4362 30.5713 18.2157 30.757 18.03L44.192 4.59493C50.044 -1.25707 59.554 -1.25707 65.406 4.59493C71.257 10.4459 71.257 19.9559 65.406 25.8079L51.263 39.95V39.95Z"
          stroke-width="3px"
          stroke="#b66e6e"
          fill="#b66e6e" />
</svg>
