<svg width="30" height="30" viewBox="0 0 30 30" fill="none" xmlns="http://www.w3.org/2000/svg">
<path d="M30 8.9991C30.001 8.86778 29.9726 8.73762 29.9168 8.61633C29.8609 8.49504 29.7784 8.38509 29.6744 8.293L20.7855 0.293C20.5772 0.105516 20.2947 0.000133458 20 0H5.55555C4.08266 0.00156145 2.67059 0.528847 1.6291 1.46619C0.587607 2.40353 0.00173494 3.6744 0 5V25C0.00173494 26.3256 0.587607 27.5965 1.6291 28.5338C2.67059 29.4712 4.08266 29.9984 5.55555 30H24.4444C25.9173 29.9984 27.3294 29.4712 28.3709 28.5338C29.4124 27.5965 29.9982 26.3256 30 25V8.9991ZM21.1111 3.4141L26.2065 8H24.4444C23.5606 7.99913 22.7134 7.68278 22.0884 7.12036C21.4635 6.55794 21.1121 5.79538 21.1111 5V3.4141ZM24.4444 28H5.55555C4.6718 27.9991 3.82451 27.6828 3.1996 27.1204C2.57469 26.5579 2.22319 25.7954 2.22222 25V5C2.22319 4.20462 2.57469 3.44206 3.1996 2.87964C3.82451 2.31722 4.6718 2.00087 5.55555 2H18.8889V5C18.8907 6.3256 19.4764 7.59647 20.518 8.53381C21.5594 9.47115 22.9715 9.99844 24.4444 10H27.7778V25C27.7768 25.7954 27.4253 26.5579 26.8004 27.1204C26.1754 27.6828 25.3282 27.9991 24.4444 28ZM5.55555 13C5.55555 12.7348 5.67262 12.4804 5.88098 12.2929C6.08936 12.1054 6.37197 12 6.66666 12H22.2222C22.5169 12 22.7995 12.1054 23.0079 12.2929C23.2162 12.4804 23.3333 12.7348 23.3333 13C23.3333 13.2652 23.2162 13.5196 23.0079 13.7071C22.7995 13.8946 22.5169 14 22.2222 14H6.66666C6.37197 14 6.08936 13.8946 5.88098 13.7071C5.67262 13.5196 5.55555 13.2652 5.55555 13ZM17.7778 16H6.66666C6.37197 16 6.08936 16.1054 5.88098 16.2929C5.67262 16.4804 5.55555 16.7348 5.55555 17C5.55555 17.2652 5.67262 17.5196 5.88098 17.7071C6.08936 17.8946 6.37197 18 6.66666 18H17.7778C18.0724 18 18.3551 17.8946 18.5634 17.7071C18.7718 17.5196 18.8889 17.2652 18.8889 17C18.8889 16.7348 18.7718 16.4804 18.5634 16.2929C18.3551 16.1054 18.0724 16 17.7778 16ZM12.2222 20H6.66666C6.37197 20 6.08936 20.1054 5.88098 20.2929C5.67262 20.4804 5.55555 20.7348 5.55555 21C5.55555 21.2652 5.67262 21.5196 5.88098 21.7071C6.08936 21.8946 6.37197 22 6.66666 22H12.2222C12.5169 22 12.7995 21.8946 13.0079 21.7071C13.2162 21.5196 13.3333 21.2652 13.3333 21C13.3333 20.7348 13.2162 20.4804 13.0079 20.2929C12.7995 20.1054 12.5169 20 12.2222 20Z" fill="black"/>
</svg>
